<svg width="543" height="140" viewBox="0 0 543 140" fill="none" xmlns="http://www.w3.org/2000/svg">
<path d="M133 60.9194C133 78.9557 145.54 91.5812 163.318 91.5812C177.661 91.5812 188.483 83.5936 191.919 70.5388H175.772C173.281 75.692 168.729 78.2686 163.146 78.2686C154.128 78.2686 147.944 71.5694 147.944 60.9194C147.944 50.2694 154.128 43.5702 163.146 43.5702C168.729 43.5702 173.281 46.1468 175.772 51.3H191.919C188.483 38.2452 177.661 30.1718 163.318 30.1718C145.54 30.1718 133 42.8831 133 60.9194Z" fill="white"/>
<path d="M257.255 60.8335C257.255 42.7113 243.599 30 226.421 30C209.33 30 195.416 42.7113 195.416 60.8335C195.416 78.9557 209.33 91.7529 226.421 91.7529C243.513 91.7529 257.255 78.9557 257.255 60.8335ZM210.446 60.8335C210.446 50.0976 216.63 43.3125 226.421 43.3125C236.041 43.3125 242.31 50.0976 242.31 60.8335C242.31 71.3976 236.041 78.3545 226.421 78.3545C216.63 78.3545 210.446 71.3976 210.446 60.8335Z" fill="white"/>
<path d="M262.419 91.1517H277.106V54.9073L290.676 91.1517H302.529L316.013 54.9932V91.1517H330.7V30.8589H313.436L296.688 72.6001L279.769 30.8589H262.419V91.1517Z" fill="white"/>
<path d="M352.942 57.8275V42.7113H360.929C366.77 42.7113 369.26 45.6315 369.26 50.2694C369.26 54.9073 366.77 57.8275 360.929 57.8275H352.942ZM384.205 50.2694C384.205 39.1899 376.818 30.8589 362.046 30.8589H338.255V91.1517H352.942V69.5081H362.046C377.42 69.5081 384.205 60.2323 384.205 50.2694Z" fill="white"/>
<path d="M429.985 91.1517H445.53L423.715 30.8589H406.709L384.894 91.1517H400.268L403.875 80.5017H426.377L429.985 91.1517ZM422.598 69.1646H407.74L415.126 47.0916L422.598 69.1646Z" fill="white"/>
<path d="M492.966 73.2013C492.966 53.0178 463.163 57.7416 463.163 47.2633C463.163 43.4843 465.826 41.6807 469.347 41.7665C473.298 41.8524 476.046 44.1714 476.304 48.0363H492.193C491.592 36.5274 482.746 30 469.605 30C456.979 30 447.618 36.3557 447.618 47.7787C447.446 69.1646 477.592 63.1525 477.592 74.3178C477.592 77.8392 474.844 79.9864 470.55 79.9864C466.427 79.9864 463.507 77.7533 463.077 73.1154H447.446C447.875 85.3114 458.01 91.7529 470.979 91.7529C485.065 91.7529 492.966 83.336 492.966 73.2013Z" fill="white"/>
<path d="M542.801 73.2013C542.801 53.0178 512.998 57.7416 512.998 47.2633C512.998 43.4843 515.661 41.6807 519.182 41.7665C523.133 41.8524 525.881 44.1714 526.139 48.0363H542.028C541.427 36.5274 532.58 30 519.44 30C506.814 30 497.452 36.3557 497.452 47.7787C497.281 69.1646 527.427 63.1525 527.427 74.3178C527.427 77.8392 524.679 79.9864 520.384 79.9864C516.262 79.9864 513.342 77.7533 512.912 73.1154H497.281C497.71 85.3114 507.845 91.7529 520.814 91.7529C534.899 91.7529 542.801 83.336 542.801 73.2013Z" fill="white"/>
<g clip-path="url(#clip0_17_23)">
<path d="M79.8918 113.744L24.9054 81.5897L24.5979 39.0901L0 53.3155V95.9917L55.3472 128L79.8918 113.744Z" fill="#CE2D75"/>
<path d="M79.8917 113.744L55.6527 99.5697L86.3242 81.6329L86.4021 17.8855L111 31.7987V95.8151" fill="#44ADA2"/>
<path d="M55.7019 28.2434L0.0471191 60.2495L0.354695 31.8295L55.3944 0L86.4021 17.8855V46.2665L55.7019 28.2434Z" fill="#FFC324"/>
<path opacity="0.22" d="M55.6527 99.8572L79.8917 113.744L61.8022 95.9733" fill="#0A0A0A"/>
<path opacity="0.22" d="M86.4022 17.8855L86.3489 45.4942L92.6132 21.4614" fill="#0A0A0A"/>
<path opacity="0.22" d="M0 67.7073L24.6245 46.1166L0.535182 60.1017" fill="#0A0A0A"/>
</g>
<path d="M239.372 104.958H248.355C249.223 104.958 250.08 105.066 250.926 105.283C251.772 105.479 252.521 105.815 253.172 106.292C253.844 106.748 254.387 107.345 254.799 108.082C255.211 108.82 255.417 109.71 255.417 110.751C255.417 112.053 255.048 113.127 254.311 113.973C253.573 114.819 252.608 115.427 251.414 115.796V115.861C252.868 116.056 254.061 116.62 254.994 117.553C255.927 118.486 256.394 119.733 256.394 121.296C256.394 122.554 256.144 123.617 255.645 124.485C255.146 125.331 254.484 126.015 253.66 126.535C252.857 127.056 251.924 127.436 250.861 127.675C249.819 127.892 248.756 128 247.671 128H239.372V104.958ZM243.473 114.331H247.118C248.485 114.331 249.527 114.06 250.243 113.517C250.959 112.975 251.317 112.205 251.317 111.207C251.317 110.165 250.948 109.427 250.21 108.994C249.472 108.56 248.322 108.343 246.76 108.343H243.473V114.331ZM243.473 124.55H247.151C247.671 124.55 248.236 124.518 248.843 124.453C249.451 124.366 250.004 124.203 250.503 123.964C251.024 123.726 251.447 123.379 251.772 122.923C252.119 122.467 252.293 121.86 252.293 121.1C252.293 119.885 251.881 119.039 251.056 118.562C250.232 118.085 248.984 117.846 247.313 117.846H243.473V124.55ZM258.557 112.378H262.885L267.246 123.737H267.311L271.184 112.378H275.252L267.865 131.352C267.583 132.068 267.279 132.697 266.953 133.24C266.628 133.804 266.237 134.27 265.782 134.639C265.326 135.03 264.784 135.323 264.154 135.518C263.547 135.713 262.809 135.811 261.941 135.811C261.616 135.811 261.28 135.789 260.932 135.746C260.607 135.724 260.271 135.67 259.924 135.583L260.249 132.198C260.509 132.285 260.759 132.339 260.998 132.361C261.258 132.404 261.497 132.426 261.714 132.426C262.126 132.426 262.473 132.372 262.755 132.263C263.037 132.177 263.276 132.025 263.471 131.808C263.666 131.613 263.84 131.363 263.992 131.059C264.144 130.756 264.306 130.398 264.48 129.985L265.261 128L258.557 112.378ZM287.219 104.958H296.202C297.069 104.958 297.927 105.066 298.773 105.283C299.619 105.479 300.367 105.815 301.018 106.292C301.691 106.748 302.233 107.345 302.646 108.082C303.058 108.82 303.264 109.71 303.264 110.751C303.264 112.053 302.895 113.127 302.157 113.973C301.42 114.819 300.454 115.427 299.261 115.796V115.861C300.715 116.056 301.908 116.62 302.841 117.553C303.774 118.486 304.24 119.733 304.24 121.296C304.24 122.554 303.991 123.617 303.492 124.485C302.993 125.331 302.331 126.015 301.506 126.535C300.704 127.056 299.771 127.436 298.708 127.675C297.666 127.892 296.603 128 295.518 128H287.219V104.958ZM291.32 114.331H294.965C296.332 114.331 297.373 114.06 298.089 113.517C298.805 112.975 299.163 112.205 299.163 111.207C299.163 110.165 298.794 109.427 298.057 108.994C297.319 108.56 296.169 108.343 294.607 108.343H291.32V114.331ZM291.32 124.55H294.997C295.518 124.55 296.082 124.518 296.69 124.453C297.297 124.366 297.851 124.203 298.35 123.964C298.87 123.726 299.293 123.379 299.619 122.923C299.966 122.467 300.14 121.86 300.14 121.1C300.14 119.885 299.727 119.039 298.903 118.562C298.078 118.085 296.831 117.846 295.16 117.846H291.32V124.55ZM319.747 118.627C319.747 118.128 319.671 117.651 319.519 117.195C319.389 116.739 319.172 116.338 318.868 115.991C318.564 115.644 318.174 115.372 317.697 115.177C317.241 114.96 316.698 114.852 316.069 114.852C314.898 114.852 313.9 115.21 313.075 115.926C312.272 116.62 311.827 117.52 311.741 118.627H319.747ZM323.652 120.384C323.652 120.558 323.652 120.732 323.652 120.905C323.652 121.079 323.641 121.252 323.62 121.426H311.741C311.784 121.99 311.925 122.511 312.164 122.988C312.424 123.444 312.76 123.845 313.173 124.192C313.585 124.518 314.051 124.778 314.572 124.973C315.093 125.169 315.635 125.266 316.199 125.266C317.176 125.266 318 125.093 318.673 124.745C319.345 124.377 319.899 123.878 320.333 123.248L322.936 125.331C321.396 127.414 319.161 128.456 316.232 128.456C315.017 128.456 313.9 128.271 312.88 127.902C311.86 127.512 310.97 126.969 310.211 126.275C309.473 125.581 308.888 124.735 308.454 123.737C308.041 122.717 307.835 121.567 307.835 120.287C307.835 119.028 308.041 117.889 308.454 116.87C308.888 115.828 309.473 114.949 310.211 114.233C310.949 113.496 311.817 112.932 312.815 112.541C313.834 112.129 314.93 111.923 316.102 111.923C317.187 111.923 318.185 112.107 319.096 112.476C320.029 112.823 320.832 113.355 321.504 114.071C322.177 114.765 322.698 115.644 323.066 116.707C323.457 117.748 323.652 118.974 323.652 120.384ZM336.645 116.544C336.298 116.088 335.821 115.698 335.213 115.372C334.605 115.025 333.944 114.852 333.228 114.852C332.599 114.852 332.024 114.982 331.503 115.242C330.982 115.503 330.722 115.937 330.722 116.544C330.722 117.152 331.004 117.586 331.568 117.846C332.154 118.085 333 118.334 334.106 118.594C334.692 118.725 335.278 118.898 335.864 119.115C336.471 119.332 337.014 119.625 337.491 119.994C337.99 120.341 338.392 120.786 338.695 121.328C338.999 121.849 339.151 122.489 339.151 123.248C339.151 124.203 338.967 125.017 338.598 125.689C338.251 126.34 337.773 126.872 337.166 127.284C336.58 127.696 335.886 127.989 335.083 128.163C334.302 128.358 333.488 128.456 332.642 128.456C331.427 128.456 330.244 128.239 329.094 127.805C327.945 127.349 326.99 126.709 326.23 125.885L328.802 123.476C329.236 124.04 329.8 124.507 330.494 124.876C331.188 125.244 331.958 125.429 332.805 125.429C333.087 125.429 333.369 125.396 333.651 125.331C333.955 125.266 334.226 125.169 334.464 125.038C334.725 124.886 334.931 124.691 335.083 124.453C335.235 124.214 335.311 123.921 335.311 123.574C335.311 122.923 335.007 122.456 334.399 122.174C333.814 121.892 332.924 121.61 331.731 121.328C331.145 121.198 330.57 121.035 330.006 120.84C329.463 120.623 328.975 120.352 328.541 120.026C328.107 119.679 327.76 119.256 327.5 118.757C327.239 118.258 327.109 117.64 327.109 116.902C327.109 116.034 327.283 115.286 327.63 114.656C327.999 114.027 328.476 113.517 329.062 113.127C329.648 112.715 330.31 112.411 331.047 112.216C331.785 112.02 332.544 111.923 333.325 111.923C334.454 111.923 335.549 112.118 336.612 112.508C337.697 112.899 338.554 113.496 339.184 114.298L336.645 116.544ZM346.94 112.378V114.559H347.038C347.233 114.255 347.483 113.951 347.786 113.648C348.112 113.322 348.502 113.04 348.958 112.801C349.414 112.541 349.924 112.335 350.488 112.183C351.073 112.009 351.724 111.923 352.44 111.923C353.547 111.923 354.567 112.14 355.5 112.574C356.433 112.986 357.235 113.561 357.908 114.298C358.581 115.036 359.101 115.904 359.47 116.902C359.839 117.9 360.023 118.974 360.023 120.124C360.023 121.274 359.839 122.359 359.47 123.379C359.123 124.377 358.613 125.255 357.941 126.015C357.29 126.752 356.487 127.349 355.532 127.805C354.599 128.239 353.536 128.456 352.343 128.456C351.236 128.456 350.216 128.228 349.283 127.772C348.372 127.317 347.667 126.698 347.168 125.917H347.103V135.811H343.198V112.378H346.94ZM356.053 120.124C356.053 119.517 355.955 118.92 355.76 118.334C355.586 117.727 355.315 117.184 354.946 116.707C354.578 116.229 354.111 115.85 353.547 115.568C352.983 115.264 352.321 115.112 351.562 115.112C350.846 115.112 350.206 115.264 349.641 115.568C349.077 115.871 348.589 116.262 348.177 116.739C347.786 117.217 347.483 117.759 347.266 118.367C347.07 118.974 346.973 119.582 346.973 120.189C346.973 120.797 347.07 121.404 347.266 122.012C347.483 122.597 347.786 123.129 348.177 123.606C348.589 124.084 349.077 124.474 349.641 124.778C350.206 125.06 350.846 125.201 351.562 125.201C352.321 125.201 352.983 125.049 353.547 124.745C354.111 124.442 354.578 124.051 354.946 123.574C355.315 123.097 355.586 122.554 355.76 121.947C355.955 121.339 356.053 120.732 356.053 120.124ZM363.532 120.124C363.532 118.887 363.749 117.77 364.183 116.772C364.639 115.752 365.246 114.884 366.006 114.168C366.765 113.452 367.665 112.899 368.707 112.508C369.748 112.118 370.855 111.923 372.027 111.923C373.198 111.923 374.305 112.118 375.346 112.508C376.388 112.899 377.288 113.452 378.047 114.168C378.807 114.884 379.403 115.752 379.837 116.772C380.293 117.77 380.521 118.887 380.521 120.124C380.521 121.361 380.293 122.489 379.837 123.509C379.403 124.529 378.807 125.407 378.047 126.145C377.288 126.861 376.388 127.425 375.346 127.837C374.305 128.25 373.198 128.456 372.027 128.456C370.855 128.456 369.748 128.25 368.707 127.837C367.665 127.425 366.765 126.861 366.006 126.145C365.246 125.407 364.639 124.529 364.183 123.509C363.749 122.489 363.532 121.361 363.532 120.124ZM367.503 120.124C367.503 120.732 367.59 121.339 367.763 121.947C367.958 122.554 368.24 123.097 368.609 123.574C368.978 124.051 369.445 124.442 370.009 124.745C370.573 125.049 371.245 125.201 372.027 125.201C372.808 125.201 373.48 125.049 374.044 124.745C374.608 124.442 375.075 124.051 375.444 123.574C375.813 123.097 376.084 122.554 376.257 121.947C376.453 121.339 376.55 120.732 376.55 120.124C376.55 119.517 376.453 118.92 376.257 118.334C376.084 117.727 375.813 117.184 375.444 116.707C375.075 116.229 374.608 115.85 374.044 115.568C373.48 115.264 372.808 115.112 372.027 115.112C371.245 115.112 370.573 115.264 370.009 115.568C369.445 115.85 368.978 116.229 368.609 116.707C368.24 117.184 367.958 117.727 367.763 118.334C367.59 118.92 367.503 119.517 367.503 120.124ZM385.024 103.396H388.929V118.952H389.027L394.95 112.378H399.962L393.192 119.441L400.385 128H395.21L389.027 119.994H388.929V128H385.024V103.396ZM413.709 118.627C413.709 118.128 413.633 117.651 413.481 117.195C413.351 116.739 413.134 116.338 412.83 115.991C412.526 115.644 412.136 115.372 411.658 115.177C411.203 114.96 410.66 114.852 410.031 114.852C408.859 114.852 407.861 115.21 407.037 115.926C406.234 116.62 405.789 117.52 405.703 118.627H413.709ZM417.614 120.384C417.614 120.558 417.614 120.732 417.614 120.905C417.614 121.079 417.603 121.252 417.582 121.426H405.703C405.746 121.99 405.887 122.511 406.126 122.988C406.386 123.444 406.722 123.845 407.135 124.192C407.547 124.518 408.013 124.778 408.534 124.973C409.055 125.169 409.597 125.266 410.161 125.266C411.138 125.266 411.962 125.093 412.635 124.745C413.307 124.377 413.861 123.878 414.295 123.248L416.898 125.331C415.358 127.414 413.123 128.456 410.194 128.456C408.979 128.456 407.861 128.271 406.842 127.902C405.822 127.512 404.932 126.969 404.173 126.275C403.435 125.581 402.849 124.735 402.415 123.737C402.003 122.717 401.797 121.567 401.797 120.287C401.797 119.028 402.003 117.889 402.415 116.87C402.849 115.828 403.435 114.949 404.173 114.233C404.911 113.496 405.778 112.932 406.777 112.541C407.796 112.129 408.892 111.923 410.064 111.923C411.148 111.923 412.147 112.107 413.058 112.476C413.991 112.823 414.794 113.355 415.466 114.071C416.139 114.765 416.659 115.644 417.028 116.707C417.419 117.748 417.614 118.974 417.614 120.384ZM431.03 104.958H437.441L443.43 121.328H443.527L449.451 104.958H455.895V128H451.826V109.482H451.761L444.764 128H441.9L435 109.482H434.935V128H431.03V104.958ZM472.425 118.627C472.425 118.128 472.349 117.651 472.197 117.195C472.067 116.739 471.85 116.338 471.546 115.991C471.243 115.644 470.852 115.372 470.375 115.177C469.919 114.96 469.377 114.852 468.747 114.852C467.576 114.852 466.578 115.21 465.753 115.926C464.95 116.62 464.506 117.52 464.419 118.627H472.425ZM476.33 120.384C476.33 120.558 476.33 120.732 476.33 120.905C476.33 121.079 476.32 121.252 476.298 121.426H464.419C464.462 121.99 464.603 122.511 464.842 122.988C465.102 123.444 465.439 123.845 465.851 124.192C466.263 124.518 466.73 124.778 467.25 124.973C467.771 125.169 468.313 125.266 468.878 125.266C469.854 125.266 470.678 125.093 471.351 124.745C472.024 124.377 472.577 123.878 473.011 123.248L475.614 125.331C474.074 127.414 471.839 128.456 468.91 128.456C467.695 128.456 466.578 128.271 465.558 127.902C464.538 127.512 463.649 126.969 462.889 126.275C462.152 125.581 461.566 124.735 461.132 123.737C460.72 122.717 460.513 121.567 460.513 120.287C460.513 119.028 460.72 117.889 461.132 116.87C461.566 115.828 462.152 114.949 462.889 114.233C463.627 113.496 464.495 112.932 465.493 112.541C466.513 112.129 467.608 111.923 468.78 111.923C469.865 111.923 470.863 112.107 471.774 112.476C472.707 112.823 473.51 113.355 474.182 114.071C474.855 114.765 475.376 115.644 475.745 116.707C476.135 117.748 476.33 118.974 476.33 120.384ZM478.518 115.503V112.378H481.252V107.854H485.092V112.378H488.998V115.503H485.092V122.76C485.092 123.455 485.212 124.029 485.45 124.485C485.711 124.941 486.275 125.169 487.143 125.169C487.403 125.169 487.685 125.147 487.989 125.103C488.293 125.038 488.564 124.952 488.802 124.843L488.933 127.902C488.585 128.033 488.173 128.13 487.696 128.195C487.219 128.282 486.763 128.325 486.329 128.325C485.288 128.325 484.441 128.184 483.79 127.902C483.14 127.599 482.619 127.197 482.228 126.698C481.859 126.177 481.599 125.592 481.447 124.941C481.317 124.268 481.252 123.552 481.252 122.793V115.503H478.518ZM492.475 112.378H496.218V114.982H496.283C496.717 114.071 497.324 113.333 498.105 112.769C498.886 112.205 499.798 111.923 500.839 111.923C500.991 111.923 501.154 111.933 501.327 111.955C501.501 111.955 501.653 111.977 501.783 112.02V115.6C501.523 115.535 501.295 115.492 501.099 115.47C500.926 115.448 500.752 115.438 500.579 115.438C499.689 115.438 498.973 115.6 498.431 115.926C497.888 116.251 497.465 116.642 497.161 117.097C496.858 117.553 496.652 118.019 496.543 118.497C496.435 118.974 496.38 119.354 496.38 119.636V128H492.475V112.378ZM505.046 112.378H508.951V128H505.046V112.378ZM504.493 107.073C504.493 106.444 504.72 105.902 505.176 105.446C505.653 104.969 506.25 104.73 506.966 104.73C507.682 104.73 508.279 104.958 508.756 105.414C509.255 105.847 509.505 106.401 509.505 107.073C509.505 107.746 509.255 108.31 508.756 108.766C508.279 109.2 507.682 109.417 506.966 109.417C506.25 109.417 505.653 109.189 505.176 108.733C504.72 108.256 504.493 107.703 504.493 107.073ZM525.015 116.707C524.711 116.273 524.255 115.915 523.648 115.633C523.04 115.329 522.422 115.177 521.793 115.177C521.077 115.177 520.448 115.329 519.905 115.633C519.363 115.915 518.907 116.295 518.538 116.772C518.191 117.249 517.931 117.792 517.757 118.399C517.584 118.985 517.497 119.582 517.497 120.189C517.497 120.797 517.584 121.404 517.757 122.012C517.953 122.597 518.235 123.129 518.603 123.606C518.972 124.084 519.428 124.474 519.97 124.778C520.534 125.06 521.185 125.201 521.923 125.201C522.531 125.201 523.138 125.082 523.746 124.843C524.353 124.604 524.841 124.257 525.21 123.802L527.651 126.275C527 126.969 526.165 127.512 525.145 127.902C524.147 128.271 523.062 128.456 521.891 128.456C520.741 128.456 519.645 128.271 518.603 127.902C517.584 127.534 516.683 126.991 515.902 126.275C515.143 125.559 514.535 124.691 514.08 123.671C513.646 122.652 513.429 121.491 513.429 120.189C513.429 118.931 513.646 117.792 514.08 116.772C514.535 115.752 515.143 114.884 515.902 114.168C516.662 113.452 517.54 112.899 518.538 112.508C519.558 112.118 520.643 111.923 521.793 111.923C522.943 111.923 524.049 112.14 525.113 112.574C526.197 113.007 527.054 113.604 527.684 114.364L525.015 116.707ZM539.442 116.544C539.094 116.088 538.617 115.698 538.01 115.372C537.402 115.025 536.74 114.852 536.024 114.852C535.395 114.852 534.82 114.982 534.299 115.242C533.779 115.503 533.518 115.937 533.518 116.544C533.518 117.152 533.8 117.586 534.365 117.846C534.95 118.085 535.797 118.334 536.903 118.594C537.489 118.725 538.075 118.898 538.661 119.115C539.268 119.332 539.81 119.625 540.288 119.994C540.787 120.341 541.188 120.786 541.492 121.328C541.796 121.849 541.948 122.489 541.948 123.248C541.948 124.203 541.763 125.017 541.394 125.689C541.047 126.34 540.57 126.872 539.962 127.284C539.377 127.696 538.682 127.989 537.879 128.163C537.098 128.358 536.285 128.456 535.439 128.456C534.224 128.456 533.041 128.239 531.891 127.805C530.741 127.349 529.787 126.709 529.027 125.885L531.598 123.476C532.032 124.04 532.596 124.507 533.291 124.876C533.985 125.244 534.755 125.429 535.601 125.429C535.883 125.429 536.165 125.396 536.447 125.331C536.751 125.266 537.022 125.169 537.261 125.038C537.521 124.886 537.728 124.691 537.879 124.453C538.031 124.214 538.107 123.921 538.107 123.574C538.107 122.923 537.804 122.456 537.196 122.174C536.61 121.892 535.721 121.61 534.527 121.328C533.941 121.198 533.366 121.035 532.802 120.84C532.26 120.623 531.772 120.352 531.338 120.026C530.904 119.679 530.557 119.256 530.296 118.757C530.036 118.258 529.906 117.64 529.906 116.902C529.906 116.034 530.079 115.286 530.427 114.656C530.795 114.027 531.273 113.517 531.859 113.127C532.444 112.715 533.106 112.411 533.844 112.216C534.582 112.02 535.341 111.923 536.122 111.923C537.25 111.923 538.346 112.118 539.409 112.508C540.494 112.899 541.351 113.496 541.98 114.298L539.442 116.544Z" fill="#FAFAFA"/>
<defs>
<clipPath id="clip0_17_23">
<rect width="111" height="128" fill="white"/>
</clipPath>
</defs>
</svg>
