<svg width="380" height="56" viewBox="0 0 380 56" fill="none" xmlns="http://www.w3.org/2000/svg">
<path d="M28.1158 55.1285C41.2066 55.1285 48.5796 48.7336 53.0184 40.9092L38.4981 32.7086C36.3163 36.6208 33.5327 39.3293 28.5672 39.3293C22.7741 39.3293 18.7115 34.5143 18.7115 27.6679V27.5174C18.7115 21.1977 22.6237 16.0065 28.5672 16.0065C33.3822 16.0065 36.1659 18.6398 38.122 22.4015L52.6423 13.9C48.2034 5.84988 40.379 0.207291 28.7929 0.207291C13.0689 0.207291 0.805634 11.9439 0.805634 27.6679V27.8184C0.805634 44.1443 13.5203 55.1285 28.1158 55.1285Z" fill="black"/>
<path d="M81.9931 55.1285C98.2438 55.1285 110.808 42.9405 110.808 27.6679V27.5174C110.808 12.2448 98.3943 0.207291 82.1436 0.207291C65.8929 0.207291 53.3288 12.3953 53.3288 27.6679V27.8184C53.3288 43.091 65.7425 55.1285 81.9931 55.1285ZM82.1436 39.555C75.3725 39.555 71.0841 33.9124 71.0841 27.6679V27.5174C71.0841 21.3482 75.2973 15.7808 81.9931 15.7808C88.7642 15.7808 93.0526 21.4234 93.0526 27.6679V27.8184C93.0526 33.9876 88.8395 39.555 82.1436 39.555Z" fill="black"/>
<path d="M115.211 54H132.44V27.8936L144.552 46.627H144.853L156.966 27.8936V54H174.496V1.33581H156.139L144.853 19.8435L133.568 1.33581H115.211V54Z" fill="black"/>
<path d="M180.151 54H197.756V39.7054H203.473C217.693 39.7054 227.398 32.9343 227.398 20.2197V20.0692C227.398 7.58027 217.843 1.33581 203.85 1.33581H180.151V54ZM197.756 27.1413V15.4047H202.571C207.235 15.4047 210.019 17.3608 210.019 21.1977V21.3482C210.019 25.1099 207.009 27.1413 202.495 27.1413H197.756Z" fill="black"/>
<path d="M221.637 54H240.445L243.154 46.928H261.586L264.37 54H283.48L261.285 0.959635H243.831L221.637 54ZM247.593 34.439L252.408 21.6491L257.223 34.439H247.593Z" fill="black"/>
<path d="M307.181 54.9781C321.325 54.9781 330.429 48.2069 330.429 37.1475V36.997C330.429 26.3889 321.401 22.4767 307.934 19.994C302.366 18.9407 300.937 18.0379 300.937 16.6084V16.458C300.937 15.179 302.141 14.2762 304.774 14.2762C309.664 14.2762 315.608 15.8561 320.573 19.4673L329.15 7.58028C323.056 2.76526 315.532 0.357758 305.376 0.357758C290.855 0.357758 283.031 8.10692 283.031 18.1131V18.2636C283.031 29.3983 293.413 32.7839 305.225 35.1914C310.868 36.3199 312.523 37.1475 312.523 38.6522V38.8026C312.523 40.2321 311.169 41.0597 308.009 41.0597C301.84 41.0597 295.294 39.254 289.576 34.8904L280.172 46.1004C286.868 51.9687 296.498 54.9781 307.181 54.9781Z" fill="black"/>
<path d="M356.031 54.9781C370.175 54.9781 379.278 48.2069 379.278 37.1475V36.997C379.278 26.3889 370.25 22.4767 356.783 19.994C351.216 18.9407 349.786 18.0379 349.786 16.6084V16.458C349.786 15.179 350.99 14.2762 353.623 14.2762C358.514 14.2762 364.457 15.8561 369.423 19.4673L377.999 7.58028C371.905 2.76526 364.382 0.357758 354.225 0.357758C339.705 0.357758 331.881 8.10692 331.881 18.1131V18.2636C331.881 29.3983 342.263 32.7839 354.075 35.1914C359.717 36.3199 361.373 37.1475 361.373 38.6522V38.8026C361.373 40.2321 360.018 41.0597 356.858 41.0597C350.689 41.0597 344.144 39.254 338.426 34.8904L329.022 46.1004C335.718 51.9687 345.348 54.9781 356.031 54.9781Z" fill="black"/>
</svg>
