<svg width="239" height="65" viewBox="0 0 239 65" fill="none" xmlns="http://www.w3.org/2000/svg">
<path d="M81.144 35.178C79.922 36.582 78.414 37.7 76.62 38.532C74.826 39.338 72.759 39.741 70.419 39.741C68.287 39.741 66.311 39.39 64.491 38.688C62.697 37.986 61.137 36.998 59.811 35.724C58.485 34.424 57.445 32.877 56.691 31.083C55.937 29.289 55.56 27.313 55.56 25.155C55.56 22.945 55.937 20.943 56.691 19.149C57.471 17.355 58.537 15.834 59.889 14.586C61.241 13.312 62.827 12.337 64.647 11.661C66.467 10.985 68.43 10.647 70.536 10.647C72.486 10.647 74.397 10.998 76.269 11.7C78.167 12.376 79.701 13.377 80.871 14.703L76.347 19.227C75.723 18.369 74.904 17.732 73.89 17.316C72.876 16.9 71.836 16.692 70.77 16.692C69.6 16.692 68.521 16.913 67.533 17.355C66.571 17.771 65.739 18.356 65.037 19.11C64.335 19.864 63.789 20.761 63.399 21.801C63.009 22.815 62.814 23.933 62.814 25.155C62.814 26.403 63.009 27.547 63.399 28.587C63.789 29.627 64.322 30.524 64.998 31.278C65.7 32.006 66.532 32.578 67.494 32.994C68.456 33.41 69.509 33.618 70.653 33.618C71.979 33.618 73.136 33.358 74.124 32.838C75.112 32.318 75.905 31.642 76.503 30.81L81.144 35.178ZM110.767 25.077C110.767 27.261 110.39 29.263 109.636 31.083C108.882 32.877 107.829 34.424 106.477 35.724C105.151 36.998 103.565 37.986 101.719 38.688C99.8732 39.39 97.8712 39.741 95.7132 39.741C93.5552 39.741 91.5532 39.39 89.7072 38.688C87.8872 37.986 86.3012 36.998 84.9492 35.724C83.6232 34.424 82.5832 32.877 81.8292 31.083C81.0752 29.263 80.6982 27.261 80.6982 25.077C80.6982 22.867 81.0752 20.878 81.8292 19.11C82.5832 17.316 83.6232 15.795 84.9492 14.547C86.3012 13.299 87.8872 12.337 89.7072 11.661C91.5532 10.985 93.5552 10.647 95.7132 10.647C97.8712 10.647 99.8732 10.985 101.719 11.661C103.565 12.337 105.151 13.299 106.477 14.547C107.829 15.795 108.882 17.316 109.636 19.11C110.39 20.878 110.767 22.867 110.767 25.077ZM103.63 25.077C103.63 23.881 103.435 22.763 103.045 21.723C102.655 20.683 102.109 19.799 101.407 19.071C100.731 18.317 99.8992 17.732 98.9112 17.316C97.9492 16.874 96.8832 16.653 95.7132 16.653C94.5432 16.653 93.4772 16.874 92.5152 17.316C91.5532 17.732 90.7212 18.317 90.0192 19.071C89.3172 19.799 88.7712 20.683 88.3812 21.723C88.0172 22.763 87.8352 23.881 87.8352 25.077C87.8352 26.325 88.0302 27.482 88.4202 28.548C88.8102 29.588 89.3432 30.485 90.0192 31.239C90.7212 31.993 91.5532 32.591 92.5152 33.033C93.4772 33.449 94.5432 33.657 95.7132 33.657C96.8832 33.657 97.9492 33.449 98.9112 33.033C99.8732 32.591 100.705 31.993 101.407 31.239C102.109 30.485 102.655 29.588 103.045 28.548C103.435 27.482 103.63 26.325 103.63 25.077ZM138.636 39L138.792 19.461H138.675L131.499 39H126.819L119.838 19.461H119.721L119.877 39H113.598V11.388H123.075L129.354 29.094H129.51L135.516 11.388H145.149V39H138.636ZM170.229 19.89C170.229 21.502 169.93 22.867 169.332 23.985C168.734 25.077 167.928 25.961 166.914 26.637C165.9 27.313 164.73 27.807 163.404 28.119C162.078 28.431 160.7 28.587 159.27 28.587H155.955V39H149.286V11.388H159.426C160.934 11.388 162.338 11.544 163.638 11.856C164.964 12.142 166.108 12.623 167.07 13.299C168.058 13.949 168.825 14.82 169.371 15.912C169.943 16.978 170.229 18.304 170.229 19.89ZM163.56 19.929C163.56 19.279 163.43 18.746 163.17 18.33C162.91 17.914 162.559 17.589 162.117 17.355C161.675 17.121 161.168 16.965 160.596 16.887C160.05 16.809 159.478 16.77 158.88 16.77H155.955V23.283H158.763C159.387 23.283 159.985 23.231 160.557 23.127C161.129 23.023 161.636 22.841 162.078 22.581C162.546 22.321 162.91 21.983 163.17 21.567C163.43 21.125 163.56 20.579 163.56 19.929ZM189.069 39L186.924 33.579H176.238L174.21 39H166.956L178.539 11.388H185.013L196.479 39H189.069ZM181.659 18.759L178.149 28.236H185.091L181.659 18.759ZM211.787 18.564C211.215 17.836 210.461 17.264 209.525 16.848C208.615 16.406 207.731 16.185 206.873 16.185C206.431 16.185 205.976 16.224 205.508 16.302C205.066 16.38 204.663 16.536 204.299 16.77C203.935 16.978 203.623 17.264 203.363 17.628C203.129 17.966 203.012 18.408 203.012 18.954C203.012 19.422 203.103 19.812 203.285 20.124C203.493 20.436 203.779 20.709 204.143 20.943C204.533 21.177 204.988 21.398 205.508 21.606C206.028 21.788 206.613 21.983 207.263 22.191C208.199 22.503 209.174 22.854 210.188 23.244C211.202 23.608 212.125 24.102 212.957 24.726C213.789 25.35 214.478 26.13 215.024 27.066C215.57 27.976 215.843 29.12 215.843 30.498C215.843 32.084 215.544 33.462 214.946 34.632C214.374 35.776 213.594 36.725 212.606 37.479C211.618 38.233 210.487 38.792 209.213 39.156C207.939 39.52 206.626 39.702 205.274 39.702C203.298 39.702 201.387 39.364 199.541 38.688C197.695 37.986 196.161 36.998 194.939 35.724L199.307 31.278C199.983 32.11 200.867 32.812 201.959 33.384C203.077 33.93 204.182 34.203 205.274 34.203C205.768 34.203 206.249 34.151 206.717 34.047C207.185 33.943 207.588 33.774 207.926 33.54C208.29 33.306 208.576 32.994 208.784 32.604C208.992 32.214 209.096 31.746 209.096 31.2C209.096 30.68 208.966 30.238 208.706 29.874C208.446 29.51 208.069 29.185 207.575 28.899C207.107 28.587 206.509 28.314 205.781 28.08C205.079 27.82 204.273 27.547 203.363 27.261C202.479 26.975 201.608 26.637 200.75 26.247C199.918 25.857 199.164 25.363 198.488 24.765C197.838 24.141 197.305 23.4 196.889 22.542C196.499 21.658 196.304 20.592 196.304 19.344C196.304 17.81 196.616 16.497 197.24 15.405C197.864 14.313 198.683 13.416 199.697 12.714C200.711 12.012 201.855 11.505 203.129 11.193C204.403 10.855 205.69 10.686 206.99 10.686C208.55 10.686 210.136 10.972 211.748 11.544C213.386 12.116 214.816 12.961 216.038 14.079L211.787 18.564ZM233.269 18.564C232.697 17.836 231.943 17.264 231.007 16.848C230.097 16.406 229.213 16.185 228.355 16.185C227.913 16.185 227.458 16.224 226.99 16.302C226.548 16.38 226.145 16.536 225.781 16.77C225.417 16.978 225.105 17.264 224.845 17.628C224.611 17.966 224.494 18.408 224.494 18.954C224.494 19.422 224.585 19.812 224.767 20.124C224.975 20.436 225.261 20.709 225.625 20.943C226.015 21.177 226.47 21.398 226.99 21.606C227.51 21.788 228.095 21.983 228.745 22.191C229.681 22.503 230.656 22.854 231.67 23.244C232.684 23.608 233.607 24.102 234.439 24.726C235.271 25.35 235.96 26.13 236.506 27.066C237.052 27.976 237.325 29.12 237.325 30.498C237.325 32.084 237.026 33.462 236.428 34.632C235.856 35.776 235.076 36.725 234.088 37.479C233.1 38.233 231.969 38.792 230.695 39.156C229.421 39.52 228.108 39.702 226.756 39.702C224.78 39.702 222.869 39.364 221.023 38.688C219.177 37.986 217.643 36.998 216.421 35.724L220.789 31.278C221.465 32.11 222.349 32.812 223.441 33.384C224.559 33.93 225.664 34.203 226.756 34.203C227.25 34.203 227.731 34.151 228.199 34.047C228.667 33.943 229.07 33.774 229.408 33.54C229.772 33.306 230.058 32.994 230.266 32.604C230.474 32.214 230.578 31.746 230.578 31.2C230.578 30.68 230.448 30.238 230.188 29.874C229.928 29.51 229.551 29.185 229.057 28.899C228.589 28.587 227.991 28.314 227.263 28.08C226.561 27.82 225.755 27.547 224.845 27.261C223.961 26.975 223.09 26.637 222.232 26.247C221.4 25.857 220.646 25.363 219.97 24.765C219.32 24.141 218.787 23.4 218.371 22.542C217.981 21.658 217.786 20.592 217.786 19.344C217.786 17.81 218.098 16.497 218.722 15.405C219.346 14.313 220.165 13.416 221.179 12.714C222.193 12.012 223.337 11.505 224.611 11.193C225.885 10.855 227.172 10.686 228.472 10.686C230.032 10.686 231.618 10.972 233.23 11.544C234.868 12.116 236.298 12.961 237.52 14.079L233.269 18.564Z" fill="#3F3F46"/>
<path d="M6.84937 16.5207L25 6.04145L43.1506 16.5207V37.4793L25 47.9585L6.84937 37.4793V16.5207Z" fill="white" stroke="url(#paint0_linear_10_16)" stroke-width="7"/>
<path fill-rule="evenodd" clip-rule="evenodd" d="M27.5435 31.3334L27.5435 31.3335L27.5435 31.3334L36.8233 20L23.2777 23.167L23.2777 23.167L14 34.5012L27.5435 31.3334Z" fill="#DCAB03"/>
<path d="M65.1275 56.652V58H63.4918V44.4117H65.1814V50.7565H65.2353C65.5229 50.3371 65.9243 49.9836 66.4396 49.6961C66.9548 49.3965 67.5659 49.2467 68.2729 49.2467C68.908 49.2467 69.4831 49.3605 69.9984 49.5882C70.5256 49.8159 70.975 50.1334 71.3464 50.5408C71.7299 50.9482 72.0235 51.4275 72.2272 51.9787C72.4309 52.518 72.5327 53.0991 72.5327 53.7222C72.5327 54.3453 72.4309 54.9325 72.2272 55.4837C72.0235 56.0349 71.7359 56.5142 71.3644 56.9216C70.9929 57.329 70.5436 57.6525 70.0164 57.8922C69.4891 58.1198 68.896 58.2337 68.2369 58.2337C67.6258 58.2337 67.0447 58.1019 66.4935 57.8382C65.9423 57.5626 65.4989 57.1672 65.1634 56.652H65.1275ZM70.7892 53.7222C70.7892 53.3268 70.7293 52.9433 70.6095 52.5719C70.4897 52.2004 70.3099 51.8709 70.0703 51.5833C69.8306 51.2957 69.5311 51.0681 69.1716 50.9003C68.8241 50.7325 68.4167 50.6487 67.9494 50.6487C67.518 50.6487 67.1226 50.7325 66.7631 50.9003C66.4156 51.0681 66.116 51.2957 65.8644 51.5833C65.6128 51.8709 65.415 52.2004 65.2713 52.5719C65.1394 52.9433 65.0735 53.3328 65.0735 53.7402C65.0735 54.1476 65.1394 54.537 65.2713 54.9085C65.415 55.2799 65.6128 55.6095 65.8644 55.8971C66.116 56.1727 66.4156 56.3943 66.7631 56.5621C67.1226 56.7298 67.518 56.8137 67.9494 56.8137C68.4167 56.8137 68.8241 56.7298 69.1716 56.5621C69.5311 56.3823 69.8306 56.1487 70.0703 55.8611C70.3099 55.5735 70.4897 55.244 70.6095 54.8725C70.7293 54.5011 70.7892 54.1176 70.7892 53.7222ZM79.0167 56.1667H79.0526L81.4072 49.4804H83.2046L79.0706 60.0131C78.9268 60.3726 78.771 60.6901 78.6033 60.9657C78.4355 61.2533 78.2378 61.4929 78.0101 61.6847C77.7825 61.8884 77.5128 62.0441 77.2013 62.152C76.9017 62.2598 76.5423 62.3137 76.1229 62.3137C75.9431 62.3137 75.7574 62.3018 75.5657 62.2778C75.3859 62.2658 75.2002 62.2359 75.0085 62.1879L75.1702 60.6961C75.4578 60.7919 75.7394 60.8399 76.015 60.8399C76.4584 60.8399 76.7879 60.7141 77.0036 60.4624C77.2193 60.2228 77.417 59.8753 77.5967 59.4199L78.1359 58L74.4872 49.4804H76.3745L79.0167 56.1667ZM91.2193 45.2745H95.6049C96.0842 45.2745 96.5635 45.3284 97.0428 45.4362C97.5221 45.5441 97.9475 45.7238 98.319 45.9755C98.7024 46.2271 99.008 46.5566 99.2356 46.964C99.4753 47.3714 99.5951 47.8807 99.5951 48.4918C99.5951 49.1988 99.3914 49.7919 98.984 50.2712C98.5766 50.7505 98.0374 51.08 97.3663 51.2598V51.2957C97.7738 51.3437 98.1512 51.4515 98.4987 51.6193C98.8462 51.775 99.1458 51.9847 99.3974 52.2483C99.649 52.512 99.8408 52.8235 99.9726 53.183C100.116 53.5425 100.188 53.9439 100.188 54.3872C100.188 54.9984 100.062 55.5316 99.8108 55.9869C99.5592 56.4423 99.2177 56.8197 98.7863 57.1193C98.3549 57.4069 97.8456 57.6285 97.2585 57.7843C96.6833 57.9281 96.0662 58 95.4072 58H91.2193V45.2745ZM92.9987 50.6487H95.3173C95.6528 50.6487 95.9704 50.6127 96.2699 50.5408C96.5815 50.4569 96.8511 50.3371 97.0788 50.1813C97.3064 50.0136 97.4862 49.8099 97.618 49.5702C97.7498 49.3186 97.8157 49.019 97.8157 48.6715C97.8157 47.9885 97.5641 47.5032 97.0608 47.2157C96.5575 46.9161 95.8805 46.7663 95.0297 46.7663H92.9987V50.6487ZM92.9987 56.4902H95.2274C95.5989 56.4902 95.9704 56.4602 96.3418 56.4003C96.7253 56.3284 97.0668 56.2086 97.3663 56.0408C97.6779 55.8731 97.9235 55.6514 98.1033 55.3758C98.295 55.0882 98.3909 54.7287 98.3909 54.2974C98.3909 53.5425 98.1332 52.9973 97.618 52.6617C97.1027 52.3262 96.3598 52.1585 95.3892 52.1585H92.9987V56.4902ZM109.797 52.9853C109.785 52.6498 109.725 52.3382 109.617 52.0506C109.522 51.7511 109.372 51.4934 109.168 51.2778C108.976 51.0621 108.731 50.8943 108.431 50.7745C108.144 50.6427 107.802 50.5768 107.407 50.5768C107.047 50.5768 106.706 50.6427 106.382 50.7745C106.071 50.8943 105.795 51.0621 105.555 51.2778C105.328 51.4934 105.136 51.7511 104.98 52.0506C104.836 52.3382 104.752 52.6498 104.728 52.9853H109.797ZM111.505 53.6683C111.505 53.7641 111.505 53.86 111.505 53.9559C111.505 54.0517 111.499 54.1476 111.487 54.2435H104.728C104.74 54.6029 104.818 54.9444 104.962 55.268C105.118 55.5795 105.322 55.8551 105.573 56.0948C105.825 56.3224 106.112 56.5022 106.436 56.634C106.772 56.7658 107.125 56.8317 107.496 56.8317C108.072 56.8317 108.569 56.7059 108.988 56.4542C109.408 56.2026 109.737 55.8971 109.977 55.5376L111.163 56.4902C110.708 57.0893 110.169 57.5327 109.545 57.8203C108.934 58.0959 108.251 58.2337 107.496 58.2337C106.849 58.2337 106.25 58.1258 105.699 57.9101C105.148 57.6944 104.675 57.3949 104.279 57.0114C103.884 56.616 103.572 56.1427 103.344 55.5915C103.117 55.0403 103.003 54.4292 103.003 53.7582C103.003 53.0991 103.111 52.494 103.327 51.9428C103.554 51.3796 103.866 50.9003 104.261 50.5049C104.657 50.1095 105.124 49.8039 105.663 49.5882C106.202 49.3605 106.784 49.2467 107.407 49.2467C108.03 49.2467 108.593 49.3486 109.096 49.5523C109.611 49.756 110.043 50.0495 110.39 50.433C110.75 50.8164 111.025 51.2837 111.217 51.8349C111.409 52.3742 111.505 52.9853 111.505 53.6683ZM119.364 51.6372C119.172 51.3257 118.902 51.0741 118.555 50.8823C118.207 50.6786 117.818 50.5768 117.386 50.5768C117.195 50.5768 117.003 50.6007 116.811 50.6487C116.62 50.6846 116.446 50.7505 116.29 50.8464C116.146 50.9303 116.026 51.0441 115.931 51.1879C115.847 51.3197 115.805 51.4875 115.805 51.6912C115.805 52.0506 115.967 52.3202 116.29 52.5C116.614 52.6677 117.099 52.8235 117.746 52.9673C118.153 53.0632 118.531 53.177 118.878 53.3088C119.226 53.4406 119.525 53.6084 119.777 53.8121C120.041 54.0038 120.244 54.2375 120.388 54.5131C120.532 54.7887 120.604 55.1122 120.604 55.4837C120.604 55.9869 120.508 56.4123 120.316 56.7598C120.125 57.1073 119.867 57.3949 119.543 57.6225C119.232 57.8382 118.872 57.994 118.465 58.0899C118.058 58.1857 117.638 58.2337 117.207 58.2337C116.56 58.2337 115.925 58.1078 115.302 57.8562C114.69 57.6046 114.181 57.2211 113.774 56.7059L114.978 55.6814C115.206 56.0169 115.517 56.2985 115.913 56.5261C116.32 56.7538 116.763 56.8676 117.243 56.8676C117.458 56.8676 117.662 56.8497 117.854 56.8137C118.058 56.7658 118.237 56.6939 118.393 56.598C118.561 56.5022 118.693 56.3764 118.788 56.2206C118.884 56.0648 118.932 55.8671 118.932 55.6274C118.932 55.232 118.741 54.9384 118.357 54.7467C117.986 54.555 117.434 54.3753 116.703 54.2075C116.416 54.1356 116.122 54.0517 115.823 53.9559C115.535 53.848 115.272 53.7042 115.032 53.5245C114.792 53.3448 114.595 53.1231 114.439 52.8595C114.295 52.5839 114.223 52.2483 114.223 51.8529C114.223 51.3976 114.313 51.0081 114.493 50.6846C114.684 50.3491 114.93 50.0795 115.23 49.8758C115.529 49.6601 115.871 49.5043 116.254 49.4085C116.638 49.3006 117.033 49.2467 117.44 49.2467C118.052 49.2467 118.639 49.3665 119.202 49.6062C119.777 49.8458 120.22 50.1933 120.532 50.6487L119.364 51.6372ZM125.337 62.3137H123.647V49.4804H125.301V50.8104H125.355C125.631 50.3551 126.032 49.9836 126.559 49.6961C127.098 49.3965 127.722 49.2467 128.428 49.2467C129.064 49.2467 129.639 49.3605 130.154 49.5882C130.681 49.8159 131.131 50.1334 131.502 50.5408C131.885 50.9482 132.179 51.4275 132.383 51.9787C132.586 52.518 132.688 53.0991 132.688 53.7222C132.688 54.3453 132.586 54.9325 132.383 55.4837C132.179 56.0349 131.891 56.5142 131.52 56.9216C131.149 57.329 130.699 57.6525 130.172 57.8922C129.645 58.1198 129.052 58.2337 128.393 58.2337C127.781 58.2337 127.206 58.1019 126.667 57.8382C126.128 57.5746 125.702 57.2032 125.391 56.7239H125.337V62.3137ZM130.945 53.7222C130.945 53.3268 130.885 52.9433 130.765 52.5719C130.645 52.2004 130.466 51.8709 130.226 51.5833C129.986 51.2957 129.687 51.0681 129.327 50.9003C128.98 50.7325 128.572 50.6487 128.105 50.6487C127.674 50.6487 127.278 50.7325 126.919 50.9003C126.571 51.0681 126.272 51.2957 126.02 51.5833C125.768 51.8709 125.571 52.2004 125.427 52.5719C125.295 52.9433 125.229 53.3328 125.229 53.7402C125.229 54.1476 125.295 54.537 125.427 54.9085C125.571 55.2799 125.768 55.6095 126.02 55.8971C126.272 56.1727 126.571 56.3943 126.919 56.5621C127.278 56.7298 127.674 56.8137 128.105 56.8137C128.572 56.8137 128.98 56.7298 129.327 56.5621C129.687 56.3823 129.986 56.1487 130.226 55.8611C130.466 55.5735 130.645 55.244 130.765 54.8725C130.885 54.5011 130.945 54.1176 130.945 53.7222ZM144.565 53.7222C144.565 54.3813 144.445 54.9864 144.206 55.5376C143.978 56.0888 143.655 56.5681 143.235 56.9755C142.828 57.3709 142.343 57.6825 141.779 57.9101C141.216 58.1258 140.611 58.2337 139.964 58.2337C139.317 58.2337 138.712 58.1258 138.149 57.9101C137.585 57.6825 137.1 57.3709 136.693 56.9755C136.285 56.5681 135.962 56.0888 135.722 55.5376C135.494 54.9864 135.381 54.3813 135.381 53.7222C135.381 53.0632 135.494 52.464 135.722 51.9248C135.962 51.3736 136.285 50.9003 136.693 50.5049C137.1 50.1095 137.585 49.8039 138.149 49.5882C138.712 49.3605 139.317 49.2467 139.964 49.2467C140.611 49.2467 141.216 49.3605 141.779 49.5882C142.343 49.8039 142.828 50.1095 143.235 50.5049C143.655 50.9003 143.978 51.3736 144.206 51.9248C144.445 52.464 144.565 53.0632 144.565 53.7222ZM142.804 53.7222C142.804 53.3148 142.738 52.9254 142.606 52.5539C142.486 52.1824 142.307 51.8589 142.067 51.5833C141.827 51.2957 141.528 51.0681 141.168 50.9003C140.821 50.7325 140.419 50.6487 139.964 50.6487C139.509 50.6487 139.101 50.7325 138.742 50.9003C138.394 51.0681 138.101 51.2957 137.861 51.5833C137.621 51.8589 137.436 52.1824 137.304 52.5539C137.184 52.9254 137.124 53.3148 137.124 53.7222C137.124 54.1296 137.184 54.5191 137.304 54.8905C137.436 55.262 137.621 55.5915 137.861 55.8791C138.101 56.1667 138.394 56.3943 138.742 56.5621C139.101 56.7298 139.509 56.8137 139.964 56.8137C140.419 56.8137 140.821 56.7298 141.168 56.5621C141.528 56.3943 141.827 56.1667 142.067 55.8791C142.307 55.5915 142.486 55.262 142.606 54.8905C142.738 54.5191 142.804 54.1296 142.804 53.7222ZM149.532 53.183H149.586L153.163 49.4804H155.428L151.438 53.3448L155.769 58H153.433L149.586 53.5784H149.532V58H147.843V44.4117H149.532V53.183ZM164.105 52.9853C164.093 52.6498 164.033 52.3382 163.925 52.0506C163.829 51.7511 163.68 51.4934 163.476 51.2778C163.284 51.0621 163.039 50.8943 162.739 50.7745C162.451 50.6427 162.11 50.5768 161.714 50.5768C161.355 50.5768 161.014 50.6427 160.69 50.7745C160.378 50.8943 160.103 51.0621 159.863 51.2778C159.636 51.4934 159.444 51.7511 159.288 52.0506C159.144 52.3382 159.06 52.6498 159.036 52.9853H164.105ZM165.813 53.6683C165.813 53.7641 165.813 53.86 165.813 53.9559C165.813 54.0517 165.807 54.1476 165.795 54.2435H159.036C159.048 54.6029 159.126 54.9444 159.27 55.268C159.426 55.5795 159.63 55.8551 159.881 56.0948C160.133 56.3224 160.42 56.5022 160.744 56.634C161.079 56.7658 161.433 56.8317 161.804 56.8317C162.38 56.8317 162.877 56.7059 163.296 56.4542C163.716 56.2026 164.045 55.8971 164.285 55.5376L165.471 56.4902C165.016 57.0893 164.476 57.5327 163.853 57.8203C163.242 58.0959 162.559 58.2337 161.804 58.2337C161.157 58.2337 160.558 58.1258 160.007 57.9101C159.456 57.6944 158.982 57.3949 158.587 57.0114C158.192 56.616 157.88 56.1427 157.652 55.5915C157.425 55.0403 157.311 54.4292 157.311 53.7582C157.311 53.0991 157.419 52.494 157.634 51.9428C157.862 51.3796 158.174 50.9003 158.569 50.5049C158.964 50.1095 159.432 49.8039 159.971 49.5882C160.51 49.3605 161.091 49.2467 161.714 49.2467C162.338 49.2467 162.901 49.3486 163.404 49.5523C163.919 49.756 164.351 50.0495 164.698 50.433C165.058 50.8164 165.333 51.2837 165.525 51.8349C165.717 52.3742 165.813 52.9853 165.813 53.6683ZM181.131 55.0523H181.167L184.923 45.2745H187.691V58H185.912V47.3594H185.876L181.652 58H180.52L176.314 47.3594H176.278V58H174.552V45.2745H177.32L181.131 55.0523ZM197.834 52.9853C197.822 52.6498 197.762 52.3382 197.654 52.0506C197.559 51.7511 197.409 51.4934 197.205 51.2778C197.013 51.0621 196.768 50.8943 196.468 50.7745C196.181 50.6427 195.839 50.5768 195.444 50.5768C195.084 50.5768 194.743 50.6427 194.419 50.7745C194.108 50.8943 193.832 51.0621 193.592 51.2778C193.365 51.4934 193.173 51.7511 193.017 52.0506C192.873 52.3382 192.79 52.6498 192.766 52.9853H197.834ZM199.542 53.6683C199.542 53.7641 199.542 53.86 199.542 53.9559C199.542 54.0517 199.536 54.1476 199.524 54.2435H192.766C192.778 54.6029 192.855 54.9444 192.999 55.268C193.155 55.5795 193.359 55.8551 193.61 56.0948C193.862 56.3224 194.15 56.5022 194.473 56.634C194.809 56.7658 195.162 56.8317 195.534 56.8317C196.109 56.8317 196.606 56.7059 197.025 56.4542C197.445 56.2026 197.774 55.8971 198.014 55.5376L199.2 56.4902C198.745 57.0893 198.206 57.5327 197.583 57.8203C196.971 58.0959 196.288 58.2337 195.534 58.2337C194.886 58.2337 194.287 58.1258 193.736 57.9101C193.185 57.6944 192.712 57.3949 192.316 57.0114C191.921 56.616 191.609 56.1427 191.382 55.5915C191.154 55.0403 191.04 54.4292 191.04 53.7582C191.04 53.0991 191.148 52.494 191.364 51.9428C191.591 51.3796 191.903 50.9003 192.298 50.5049C192.694 50.1095 193.161 49.8039 193.7 49.5882C194.239 49.3605 194.821 49.2467 195.444 49.2467C196.067 49.2467 196.63 49.3486 197.133 49.5523C197.648 49.756 198.08 50.0495 198.427 50.433C198.787 50.8164 199.062 51.2837 199.254 51.8349C199.446 52.3742 199.542 52.9853 199.542 53.6683ZM206.969 50.8644H204.705V55.3039C204.705 55.8192 204.8 56.1906 204.992 56.4183C205.184 56.634 205.489 56.7418 205.909 56.7418C206.065 56.7418 206.232 56.7239 206.412 56.6879C206.592 56.652 206.754 56.598 206.897 56.5261L206.951 57.9101C206.748 57.982 206.52 58.0359 206.268 58.0719C206.029 58.1198 205.777 58.1438 205.513 58.1438C204.711 58.1438 204.093 57.9221 203.662 57.4788C203.243 57.0354 203.033 56.3704 203.033 55.4837V50.8644H201.397V49.4804H203.033V47.0359H204.705V49.4804H206.969V50.8644ZM209.613 51.3137C209.613 51.086 209.607 50.7925 209.595 50.433C209.583 50.0735 209.565 49.756 209.541 49.4804H211.141C211.165 49.6961 211.183 49.9477 211.195 50.2353C211.207 50.5109 211.213 50.7385 211.213 50.9183H211.267C211.507 50.415 211.854 50.0136 212.309 49.714C212.777 49.4025 213.298 49.2467 213.873 49.2467C214.137 49.2467 214.358 49.2707 214.538 49.3186L214.466 50.8823C214.227 50.8224 213.969 50.7925 213.693 50.7925C213.286 50.7925 212.932 50.8703 212.633 51.0261C212.333 51.1699 212.082 51.3676 211.878 51.6193C211.686 51.8709 211.542 52.1645 211.447 52.5C211.351 52.8235 211.303 53.165 211.303 53.5245V58H209.613V51.3137ZM218.732 58H217.042V49.4804H218.732V58ZM219.019 46.4068C219.019 46.7184 218.905 46.976 218.678 47.1797C218.462 47.3834 218.198 47.4853 217.887 47.4853C217.575 47.4853 217.312 47.3834 217.096 47.1797C216.88 46.964 216.772 46.7064 216.772 46.4068C216.772 46.0953 216.88 45.8377 217.096 45.6339C217.312 45.4183 217.575 45.3104 217.887 45.3104C218.198 45.3104 218.462 45.4183 218.678 45.6339C218.905 45.8377 219.019 46.0953 219.019 46.4068ZM228.542 51.6372C228.362 51.3616 228.092 51.134 227.733 50.9542C227.373 50.7625 226.99 50.6666 226.582 50.6666C226.139 50.6666 225.744 50.7505 225.396 50.9183C225.061 51.086 224.773 51.3137 224.533 51.6013C224.294 51.8769 224.108 52.2004 223.976 52.5719C223.856 52.9433 223.796 53.3328 223.796 53.7402C223.796 54.1476 223.856 54.537 223.976 54.9085C224.108 55.2799 224.294 55.6095 224.533 55.8971C224.773 56.1727 225.067 56.3943 225.414 56.5621C225.762 56.7298 226.157 56.8137 226.6 56.8137C227.032 56.8137 227.421 56.7298 227.769 56.5621C228.128 56.3943 228.422 56.1667 228.649 55.8791L229.782 56.9036C229.422 57.323 228.973 57.6525 228.434 57.8922C227.894 58.1198 227.283 58.2337 226.6 58.2337C225.941 58.2337 225.33 58.1258 224.767 57.9101C224.216 57.6944 223.736 57.3949 223.329 57.0114C222.922 56.616 222.598 56.1427 222.358 55.5915C222.131 55.0403 222.017 54.4232 222.017 53.7402C222.017 53.0692 222.131 52.458 222.358 51.9068C222.586 51.3556 222.904 50.8823 223.311 50.4869C223.719 50.0915 224.198 49.7859 224.749 49.5702C225.312 49.3545 225.917 49.2467 226.564 49.2467C227.164 49.2467 227.757 49.3665 228.344 49.6062C228.943 49.8458 229.416 50.1933 229.764 50.6487L228.542 51.6372ZM236.956 51.6372C236.764 51.3257 236.494 51.0741 236.147 50.8823C235.8 50.6786 235.41 50.5768 234.979 50.5768C234.787 50.5768 234.595 50.6007 234.404 50.6487C234.212 50.6846 234.038 50.7505 233.882 50.8464C233.738 50.9303 233.619 51.0441 233.523 51.1879C233.439 51.3197 233.397 51.4875 233.397 51.6912C233.397 52.0506 233.559 52.3202 233.882 52.5C234.206 52.6677 234.691 52.8235 235.338 52.9673C235.746 53.0632 236.123 53.177 236.471 53.3088C236.818 53.4406 237.118 53.6084 237.369 53.8121C237.633 54.0038 237.837 54.2375 237.98 54.5131C238.124 54.7887 238.196 55.1122 238.196 55.4837C238.196 55.9869 238.1 56.4123 237.908 56.7598C237.717 57.1073 237.459 57.3949 237.136 57.6225C236.824 57.8382 236.465 57.994 236.057 58.0899C235.65 58.1857 235.23 58.2337 234.799 58.2337C234.152 58.2337 233.517 58.1078 232.894 57.8562C232.283 57.6046 231.773 57.2211 231.366 56.7059L232.57 55.6814C232.798 56.0169 233.109 56.2985 233.505 56.5261C233.912 56.7538 234.356 56.8676 234.835 56.8676C235.051 56.8676 235.254 56.8497 235.446 56.8137C235.65 56.7658 235.829 56.6939 235.985 56.598C236.153 56.5022 236.285 56.3764 236.381 56.2206C236.477 56.0648 236.524 55.8671 236.524 55.6274C236.524 55.232 236.333 54.9384 235.949 54.7467C235.578 54.555 235.027 54.3753 234.296 54.2075C234.008 54.1356 233.715 54.0517 233.415 53.9559C233.127 53.848 232.864 53.7042 232.624 53.5245C232.384 53.3448 232.187 53.1231 232.031 52.8595C231.887 52.5839 231.815 52.2483 231.815 51.8529C231.815 51.3976 231.905 51.0081 232.085 50.6846C232.277 50.3491 232.522 50.0795 232.822 49.8758C233.121 49.6601 233.463 49.5043 233.846 49.4085C234.23 49.3006 234.625 49.2467 235.033 49.2467C235.644 49.2467 236.231 49.3665 236.794 49.6062C237.369 49.8458 237.813 50.1933 238.124 50.6487L236.956 51.6372Z" fill="#71717A"/>
<defs>
<linearGradient id="paint0_linear_10_16" x1="25" y1="2" x2="25" y2="52" gradientUnits="userSpaceOnUse">
<stop stop-color="#2887F1"/>
<stop offset="1" stop-color="#8B2A86"/>
</linearGradient>
</defs>
</svg>
