<svg width="59" height="72" viewBox="0 0 59 72" fill="none" xmlns="http://www.w3.org/2000/svg">
<g clip-path="url(#clip0_6_41)">
<path d="M2.70157 31.3142L27.3433 12.0676C28.6865 11.0187 30.3427 11.0187 31.688 12.0676L56.3277 31.3142C57.6729 32.3659 58.5 34.3037 58.5 36.4043L58.5 25.1249C58.5 23.0244 57.6729 21.0837 56.3277 20.0349L31.6859 0.788208C30.3427 -0.260642 28.6865 -0.260642 27.3413 0.788208L2.69949 20.0349C1.3563 21.0837 0.527173 23.0244 0.527173 25.1249L0.527172 36.4042C0.527172 34.3037 1.35423 32.3659 2.69949 31.3142L2.70157 31.3142Z" fill="#44ADA2"/>
<path d="M2.70157 48.865L27.3433 29.6183C28.6865 28.5694 30.3427 28.5694 31.688 29.6183L56.3277 48.865C57.6729 49.9138 58.5 51.8545 58.5 53.9522L58.5 42.6728C58.5 40.5751 57.6729 38.6345 56.3277 37.5828L31.6859 18.3361C30.3427 17.2873 28.6865 17.2873 27.3413 18.3361L2.69949 37.5828C1.3563 38.6317 0.527173 40.5723 0.527173 42.6728L0.527172 53.9522C0.527172 51.8517 1.35423 49.9138 2.69949 48.8622L2.70157 48.865Z" fill="#FFC324"/>
<path d="M2.70157 66.629L27.3433 47.3823C28.6865 46.3334 30.3427 46.3334 31.688 47.3823L56.3277 66.629C57.6729 67.6778 58.5 69.6185 58.5 71.7162L58.5 60.4368C58.5 58.3391 57.6729 56.3985 56.3277 55.3468L31.6859 36.1001C30.3427 35.0513 28.6865 35.0513 27.3413 36.1001L2.69949 55.3468C1.3563 56.3956 0.527173 58.3363 0.527173 60.4368L0.527172 71.7162C0.527172 69.6157 1.35423 67.6778 2.69949 66.6261L2.70157 66.629Z" fill="#F95258"/>
</g>
<defs>
<clipPath id="clip0_6_41">
<rect width="72" height="58.5" fill="white" transform="translate(58.5 1.90735e-06) rotate(90)"/>
</clipPath>
</defs>
</svg>
