<svg width="502" height="122" viewBox="0 0 502 122" fill="none" xmlns="http://www.w3.org/2000/svg">
<path d="M91.8342 45.7677C91.8342 63.804 104.374 76.4294 122.152 76.4294C136.496 76.4294 147.317 68.4419 150.753 55.387H134.606C132.115 60.5403 127.563 63.1169 121.981 63.1169C112.962 63.1169 106.779 56.4177 106.779 45.7677C106.779 35.1177 112.962 28.4184 121.981 28.4184C127.563 28.4184 132.115 30.9951 134.606 36.1483H150.753C147.317 23.0934 136.496 15.02 122.152 15.02C104.374 15.02 91.8342 27.7314 91.8342 45.7677Z" fill="white"/>
<path d="M216.089 45.6818C216.089 27.5596 202.433 14.8483 185.255 14.8483C168.164 14.8483 154.25 27.5596 154.25 45.6818C154.25 63.804 168.164 76.6012 185.255 76.6012C202.347 76.6012 216.089 63.804 216.089 45.6818ZM169.28 45.6818C169.28 34.9459 175.464 28.1608 185.255 28.1608C194.875 28.1608 201.145 34.9459 201.145 45.6818C201.145 56.2459 194.875 63.2028 185.255 63.2028C175.464 63.2028 169.28 56.2459 169.28 45.6818Z" fill="white"/>
<path d="M221.254 76H235.94V39.7556L249.51 76H261.363L274.847 39.8414V76H289.534V15.7071H272.271L255.523 57.4483L238.603 15.7071H221.254V76Z" fill="white"/>
<path d="M311.776 42.6757V27.5596H319.764C325.604 27.5596 328.095 30.4797 328.095 35.1177C328.095 39.7556 325.604 42.6757 319.764 42.6757H311.776ZM343.039 35.1177C343.039 24.0382 335.653 15.7071 320.88 15.7071H297.089V76H311.776V54.3564H320.88C336.254 54.3564 343.039 45.0806 343.039 35.1177Z" fill="white"/>
<path d="M388.819 76H404.364L382.549 15.7071H365.543L343.728 76H359.102L362.709 65.35H385.212L388.819 76ZM381.433 54.0128H366.574L373.96 31.9398L381.433 54.0128Z" fill="white"/>
<path d="M451.8 58.0495C451.8 37.866 421.997 42.5898 421.997 32.1116C421.997 28.3326 424.66 26.5289 428.181 26.6148C432.132 26.7007 434.881 29.0197 435.138 32.8846H451.027C450.426 21.3757 441.58 14.8483 428.439 14.8483C415.814 14.8483 406.452 21.2039 406.452 32.6269C406.28 54.0128 436.427 48.0007 436.427 59.1661C436.427 62.6875 433.678 64.8346 429.384 64.8346C425.261 64.8346 422.341 62.6016 421.912 57.9637H406.28C406.71 70.1596 416.844 76.6012 429.813 76.6012C443.899 76.6012 451.8 68.1842 451.8 58.0495Z" fill="white"/>
<path d="M501.635 58.0495C501.635 37.866 471.832 42.5898 471.832 32.1116C471.832 28.3326 474.495 26.5289 478.016 26.6148C481.967 26.7007 484.715 29.0197 484.973 32.8846H500.862C500.261 21.3757 491.415 14.8483 478.274 14.8483C465.648 14.8483 456.287 21.2039 456.287 32.6269C456.115 54.0128 486.261 48.0007 486.261 59.1661C486.261 62.6875 483.513 64.8346 479.219 64.8346C475.096 64.8346 472.176 62.6016 471.746 57.9637H456.115C456.544 70.1596 466.679 76.6012 479.648 76.6012C493.733 76.6012 501.635 68.1842 501.635 58.0495Z" fill="white"/>
<path d="M181.774 86.9579H190.757C191.625 86.9579 192.482 87.0664 193.328 87.2834C194.174 87.4787 194.923 87.815 195.574 88.2923C196.246 88.7479 196.789 89.3446 197.201 90.0823C197.613 90.82 197.819 91.7095 197.819 92.751C197.819 94.0528 197.45 95.1268 196.713 95.973C195.975 96.8192 195.009 97.4267 193.816 97.7955V97.8606C195.27 98.0559 196.463 98.62 197.396 99.553C198.329 100.486 198.796 101.733 198.796 103.296C198.796 104.554 198.546 105.617 198.047 106.485C197.548 107.331 196.886 108.015 196.062 108.535C195.259 109.056 194.326 109.436 193.263 109.675C192.221 109.892 191.158 110 190.073 110H181.774V86.9579ZM185.875 96.331H189.52C190.887 96.331 191.928 96.0598 192.644 95.5173C193.36 94.9749 193.718 94.2047 193.718 93.2066C193.718 92.1652 193.35 91.4275 192.612 90.9935C191.874 90.5596 190.724 90.3426 189.162 90.3426H185.875V96.331ZM185.875 106.55H189.553C190.073 106.55 190.638 106.518 191.245 106.453C191.853 106.366 192.406 106.203 192.905 105.964C193.426 105.726 193.849 105.379 194.174 104.923C194.521 104.467 194.695 103.86 194.695 103.1C194.695 101.885 194.283 101.039 193.458 100.562C192.634 100.085 191.386 99.8459 189.715 99.8459H185.875V106.55ZM201.935 94.3783H206.263L210.624 105.737H210.69L214.562 94.3783H218.631L211.243 113.352C210.961 114.068 210.657 114.697 210.332 115.24C210.006 115.804 209.616 116.27 209.16 116.639C208.704 117.03 208.162 117.323 207.533 117.518C206.925 117.713 206.187 117.811 205.32 117.811C204.994 117.811 204.658 117.789 204.311 117.746C203.985 117.724 203.649 117.67 203.302 117.583L203.627 114.198C203.888 114.285 204.137 114.339 204.376 114.361C204.636 114.404 204.875 114.426 205.092 114.426C205.504 114.426 205.851 114.372 206.133 114.263C206.415 114.177 206.654 114.025 206.849 113.808C207.044 113.613 207.218 113.363 207.37 113.059C207.522 112.756 207.685 112.398 207.858 111.985L208.639 110L201.935 94.3783ZM232.55 86.9579H241.533C242.4 86.9579 243.258 87.0664 244.104 87.2834C244.95 87.4787 245.698 87.815 246.349 88.2923C247.022 88.7479 247.564 89.3446 247.977 90.0823C248.389 90.82 248.595 91.7095 248.595 92.751C248.595 94.0528 248.226 95.1268 247.488 95.973C246.751 96.8192 245.785 97.4267 244.592 97.7955V97.8606C246.046 98.0559 247.239 98.62 248.172 99.553C249.105 100.486 249.571 101.733 249.571 103.296C249.571 104.554 249.322 105.617 248.823 106.485C248.324 107.331 247.662 108.015 246.837 108.535C246.035 109.056 245.102 109.436 244.039 109.675C242.997 109.892 241.934 110 240.849 110H232.55V86.9579ZM236.651 96.331H240.296C241.663 96.331 242.704 96.0598 243.42 95.5173C244.136 94.9749 244.494 94.2047 244.494 93.2066C244.494 92.1652 244.125 91.4275 243.388 90.9935C242.65 90.5596 241.5 90.3426 239.938 90.3426H236.651V96.331ZM236.651 106.55H240.328C240.849 106.55 241.413 106.518 242.021 106.453C242.628 106.366 243.182 106.203 243.681 105.964C244.201 105.726 244.624 105.379 244.95 104.923C245.297 104.467 245.471 103.86 245.471 103.1C245.471 101.885 245.058 101.039 244.234 100.562C243.409 100.085 242.162 99.8459 240.491 99.8459H236.651V106.55ZM266.054 100.627C266.054 100.128 265.978 99.6506 265.826 99.195C265.696 98.7393 265.479 98.3379 265.175 97.9908C264.872 97.6436 264.481 97.3724 264.004 97.1772C263.548 96.9602 263.006 96.8517 262.377 96.8517C261.205 96.8517 260.207 97.2097 259.382 97.9257C258.58 98.62 258.135 99.5204 258.048 100.627H266.054ZM269.96 102.384C269.96 102.558 269.96 102.732 269.96 102.905C269.96 103.079 269.949 103.252 269.927 103.426H258.048C258.091 103.99 258.232 104.511 258.471 104.988C258.732 105.444 259.068 105.845 259.48 106.192C259.892 106.518 260.359 106.778 260.88 106.973C261.4 107.169 261.943 107.266 262.507 107.266C263.483 107.266 264.308 107.093 264.98 106.745C265.653 106.377 266.206 105.878 266.64 105.248L269.244 107.331C267.703 109.414 265.468 110.456 262.539 110.456C261.324 110.456 260.207 110.271 259.187 109.902C258.167 109.512 257.278 108.969 256.518 108.275C255.781 107.581 255.195 106.735 254.761 105.737C254.349 104.717 254.143 103.567 254.143 102.287C254.143 101.028 254.349 99.8893 254.761 98.8695C255.195 97.8281 255.781 96.9493 256.518 96.2333C257.256 95.4956 258.124 94.9315 259.122 94.541C260.142 94.1287 261.238 93.9226 262.409 93.9226C263.494 93.9226 264.492 94.107 265.403 94.4759C266.336 94.823 267.139 95.3546 267.812 96.0706C268.484 96.7649 269.005 97.6436 269.374 98.7068C269.764 99.7482 269.96 100.974 269.96 102.384ZM283.929 98.5441C283.582 98.0884 283.104 97.6979 282.497 97.3724C281.889 97.0253 281.227 96.8517 280.511 96.8517C279.882 96.8517 279.307 96.9819 278.787 97.2422C278.266 97.5026 278.005 97.9365 278.005 98.5441C278.005 99.1516 278.288 99.5855 278.852 99.8459C279.437 100.085 280.284 100.334 281.39 100.594C281.976 100.725 282.562 100.898 283.148 101.115C283.755 101.332 284.298 101.625 284.775 101.994C285.274 102.341 285.675 102.786 285.979 103.328C286.283 103.849 286.435 104.489 286.435 105.248C286.435 106.203 286.25 107.017 285.881 107.689C285.534 108.34 285.057 108.872 284.449 109.284C283.864 109.696 283.169 109.989 282.367 110.163C281.585 110.358 280.772 110.456 279.926 110.456C278.711 110.456 277.528 110.239 276.378 109.805C275.228 109.349 274.274 108.709 273.514 107.885L276.085 105.476C276.519 106.04 277.083 106.507 277.778 106.876C278.472 107.244 279.242 107.429 280.088 107.429C280.37 107.429 280.652 107.396 280.935 107.331C281.238 107.266 281.509 107.169 281.748 107.038C282.009 106.886 282.215 106.691 282.367 106.453C282.518 106.214 282.594 105.921 282.594 105.574C282.594 104.923 282.291 104.456 281.683 104.174C281.097 103.892 280.208 103.61 279.014 103.328C278.429 103.198 277.854 103.035 277.289 102.84C276.747 102.623 276.259 102.352 275.825 102.026C275.391 101.679 275.044 101.256 274.783 100.757C274.523 100.258 274.393 99.6397 274.393 98.9021C274.393 98.0342 274.567 97.2856 274.914 96.6564C275.282 96.0272 275.76 95.5173 276.346 95.1268C276.931 94.7146 277.593 94.4108 278.331 94.2155C279.069 94.0203 279.828 93.9226 280.609 93.9226C281.737 93.9226 282.833 94.1179 283.896 94.5084C284.981 94.899 285.838 95.4956 286.467 96.2984L283.929 98.5441ZM295.2 94.3783V96.5588H295.298C295.493 96.255 295.743 95.9513 296.046 95.6475C296.372 95.3221 296.762 95.04 297.218 94.8013C297.674 94.541 298.184 94.3349 298.748 94.183C299.334 94.0094 299.984 93.9226 300.7 93.9226C301.807 93.9226 302.827 94.1396 303.76 94.5735C304.693 94.9858 305.495 95.5607 306.168 96.2984C306.841 97.0361 307.361 97.904 307.73 98.9021C308.099 99.9001 308.284 100.974 308.284 102.124C308.284 103.274 308.099 104.359 307.73 105.379C307.383 106.377 306.873 107.255 306.201 108.015C305.55 108.752 304.747 109.349 303.792 109.805C302.859 110.239 301.796 110.456 300.603 110.456C299.496 110.456 298.477 110.228 297.544 109.772C296.632 109.317 295.927 108.698 295.428 107.917H295.363V117.811H291.458V94.3783H295.2ZM304.313 102.124C304.313 101.517 304.215 100.92 304.02 100.334C303.847 99.7265 303.575 99.1841 303.206 98.7068C302.838 98.2294 302.371 97.8498 301.807 97.5677C301.243 97.2639 300.581 97.1121 299.822 97.1121C299.106 97.1121 298.466 97.2639 297.902 97.5677C297.337 97.8715 296.849 98.262 296.437 98.7393C296.046 99.2167 295.743 99.7591 295.526 100.367C295.33 100.974 295.233 101.582 295.233 102.189C295.233 102.797 295.33 103.404 295.526 104.012C295.743 104.597 296.046 105.129 296.437 105.606C296.849 106.084 297.337 106.474 297.902 106.778C298.466 107.06 299.106 107.201 299.822 107.201C300.581 107.201 301.243 107.049 301.807 106.745C302.371 106.442 302.838 106.051 303.206 105.574C303.575 105.097 303.847 104.554 304.02 103.947C304.215 103.339 304.313 102.732 304.313 102.124ZM312.769 102.124C312.769 100.887 312.986 99.7699 313.42 98.7719C313.875 97.7521 314.483 96.8842 315.242 96.1682C316.001 95.4523 316.902 94.899 317.943 94.5084C318.985 94.1179 320.091 93.9226 321.263 93.9226C322.435 93.9226 323.541 94.1179 324.583 94.5084C325.624 94.899 326.524 95.4523 327.284 96.1682C328.043 96.8842 328.64 97.7521 329.074 98.7719C329.529 99.7699 329.757 100.887 329.757 102.124C329.757 103.361 329.529 104.489 329.074 105.509C328.64 106.529 328.043 107.407 327.284 108.145C326.524 108.861 325.624 109.425 324.583 109.837C323.541 110.25 322.435 110.456 321.263 110.456C320.091 110.456 318.985 110.25 317.943 109.837C316.902 109.425 316.001 108.861 315.242 108.145C314.483 107.407 313.875 106.529 313.42 105.509C312.986 104.489 312.769 103.361 312.769 102.124ZM316.739 102.124C316.739 102.732 316.826 103.339 317 103.947C317.195 104.554 317.477 105.097 317.846 105.574C318.215 106.051 318.681 106.442 319.245 106.745C319.809 107.049 320.482 107.201 321.263 107.201C322.044 107.201 322.717 107.049 323.281 106.745C323.845 106.442 324.311 106.051 324.68 105.574C325.049 105.097 325.32 104.554 325.494 103.947C325.689 103.339 325.787 102.732 325.787 102.124C325.787 101.517 325.689 100.92 325.494 100.334C325.32 99.7265 325.049 99.1841 324.68 98.7068C324.311 98.2294 323.845 97.8498 323.281 97.5677C322.717 97.2639 322.044 97.1121 321.263 97.1121C320.482 97.1121 319.809 97.2639 319.245 97.5677C318.681 97.8498 318.215 98.2294 317.846 98.7068C317.477 99.1841 317.195 99.7265 317 100.334C316.826 100.92 316.739 101.517 316.739 102.124ZM335.236 85.3958H339.142V100.952H339.239L345.163 94.3783H350.175L343.405 101.441L350.598 110H345.423L339.239 101.994H339.142V110H335.236V85.3958ZM364.898 100.627C364.898 100.128 364.822 99.6506 364.67 99.195C364.54 98.7393 364.323 98.3379 364.019 97.9908C363.715 97.6436 363.325 97.3724 362.847 97.1772C362.392 96.9602 361.849 96.8517 361.22 96.8517C360.049 96.8517 359.051 97.2097 358.226 97.9257C357.423 98.62 356.978 99.5204 356.892 100.627H364.898ZM368.803 102.384C368.803 102.558 368.803 102.732 368.803 102.905C368.803 103.079 368.792 103.252 368.771 103.426H356.892C356.935 103.99 357.076 104.511 357.315 104.988C357.575 105.444 357.911 105.845 358.324 106.192C358.736 106.518 359.202 106.778 359.723 106.973C360.244 107.169 360.786 107.266 361.35 107.266C362.327 107.266 363.151 107.093 363.824 106.745C364.496 106.377 365.05 105.878 365.484 105.248L368.087 107.331C366.547 109.414 364.312 110.456 361.383 110.456C360.168 110.456 359.051 110.271 358.031 109.902C357.011 109.512 356.121 108.969 355.362 108.275C354.624 107.581 354.039 106.735 353.605 105.737C353.192 104.717 352.986 103.567 352.986 102.287C352.986 101.028 353.192 99.8893 353.605 98.8695C354.039 97.8281 354.624 96.9493 355.362 96.2333C356.1 95.4956 356.968 94.9315 357.966 94.541C358.985 94.1287 360.081 93.9226 361.253 93.9226C362.338 93.9226 363.336 94.107 364.247 94.4759C365.18 94.823 365.983 95.3546 366.655 96.0706C367.328 96.7649 367.849 97.6436 368.217 98.7068C368.608 99.7482 368.803 100.974 368.803 102.384ZM384.172 86.9579H390.583L396.572 103.328H396.669L402.592 86.9579H409.036V110H404.968V91.4817H404.903L397.906 110H395.042L388.142 91.4817H388.077V110H384.172V86.9579ZM426.543 100.627C426.543 100.128 426.467 99.6506 426.315 99.195C426.185 98.7393 425.968 98.3379 425.664 97.9908C425.361 97.6436 424.97 97.3724 424.493 97.1772C424.037 96.9602 423.495 96.8517 422.866 96.8517C421.694 96.8517 420.696 97.2097 419.871 97.9257C419.069 98.62 418.624 99.5204 418.537 100.627H426.543ZM430.449 102.384C430.449 102.558 430.449 102.732 430.449 102.905C430.449 103.079 430.438 103.252 430.416 103.426H418.537C418.58 103.99 418.721 104.511 418.96 104.988C419.221 105.444 419.557 105.845 419.969 106.192C420.381 106.518 420.848 106.778 421.369 106.973C421.889 107.169 422.432 107.266 422.996 107.266C423.972 107.266 424.797 107.093 425.469 106.745C426.142 106.377 426.695 105.878 427.129 105.248L429.733 107.331C428.192 109.414 425.957 110.456 423.028 110.456C421.813 110.456 420.696 110.271 419.676 109.902C418.656 109.512 417.767 108.969 417.007 108.275C416.27 107.581 415.684 106.735 415.25 105.737C414.838 104.717 414.632 103.567 414.632 102.287C414.632 101.028 414.838 99.8893 415.25 98.8695C415.684 97.8281 416.27 96.9493 417.007 96.2333C417.745 95.4956 418.613 94.9315 419.611 94.541C420.631 94.1287 421.727 93.9226 422.898 93.9226C423.983 93.9226 424.981 94.107 425.892 94.4759C426.825 94.823 427.628 95.3546 428.301 96.0706C428.973 96.7649 429.494 97.6436 429.863 98.7068C430.253 99.7482 430.449 100.974 430.449 102.384ZM433.613 97.5026V94.3783H436.346V89.8545H440.187V94.3783H444.092V97.5026H440.187V104.76C440.187 105.455 440.306 106.029 440.545 106.485C440.805 106.941 441.369 107.169 442.237 107.169C442.498 107.169 442.78 107.147 443.083 107.103C443.387 107.038 443.658 106.952 443.897 106.843L444.027 109.902C443.68 110.033 443.268 110.13 442.79 110.195C442.313 110.282 441.857 110.325 441.424 110.325C440.382 110.325 439.536 110.184 438.885 109.902C438.234 109.599 437.713 109.197 437.323 108.698C436.954 108.177 436.694 107.592 436.542 106.941C436.412 106.268 436.346 105.552 436.346 104.793V97.5026H433.613ZM448.546 94.3783H452.289V96.9819H452.354C452.788 96.0706 453.395 95.3329 454.176 94.7688C454.957 94.2047 455.869 93.9226 456.91 93.9226C457.062 93.9226 457.225 93.9335 457.398 93.9552C457.572 93.9552 457.724 93.9769 457.854 94.0203V97.6002C457.593 97.5352 457.366 97.4918 457.17 97.4701C456.997 97.4484 456.823 97.4375 456.65 97.4375C455.76 97.4375 455.044 97.6002 454.502 97.9257C453.959 98.2511 453.536 98.6417 453.232 99.0973C452.929 99.553 452.723 100.019 452.614 100.497C452.506 100.974 452.451 101.354 452.451 101.636V110H448.546V94.3783ZM462.093 94.3783H465.999V110H462.093V94.3783ZM461.54 89.0734C461.54 88.4442 461.768 87.9017 462.223 87.4461C462.701 86.9688 463.297 86.7301 464.013 86.7301C464.729 86.7301 465.326 86.9579 465.803 87.4136C466.302 87.8475 466.552 88.4008 466.552 89.0734C466.552 89.746 466.302 90.3101 465.803 90.7657C465.326 91.1997 464.729 91.4166 464.013 91.4166C463.297 91.4166 462.701 91.1888 462.223 90.7332C461.768 90.2559 461.54 89.7026 461.54 89.0734ZM483.039 98.7068C482.735 98.2728 482.279 97.9148 481.672 97.6328C481.064 97.329 480.446 97.1772 479.817 97.1772C479.101 97.1772 478.471 97.329 477.929 97.6328C477.387 97.9148 476.931 98.2945 476.562 98.7719C476.215 99.2492 475.955 99.7916 475.781 100.399C475.607 100.985 475.521 101.582 475.521 102.189C475.521 102.797 475.607 103.404 475.781 104.012C475.976 104.597 476.258 105.129 476.627 105.606C476.996 106.084 477.452 106.474 477.994 106.778C478.558 107.06 479.209 107.201 479.947 107.201C480.554 107.201 481.162 107.082 481.769 106.843C482.377 106.604 482.865 106.257 483.234 105.802L485.675 108.275C485.024 108.969 484.189 109.512 483.169 109.902C482.171 110.271 481.086 110.456 479.914 110.456C478.764 110.456 477.669 110.271 476.627 109.902C475.607 109.534 474.707 108.991 473.926 108.275C473.166 107.559 472.559 106.691 472.103 105.671C471.669 104.652 471.452 103.491 471.452 102.189C471.452 100.931 471.669 99.7916 472.103 98.7719C472.559 97.7521 473.166 96.8842 473.926 96.1682C474.685 95.4523 475.564 94.899 476.562 94.5084C477.582 94.1179 478.667 93.9226 479.817 93.9226C480.967 93.9226 482.073 94.1396 483.136 94.5735C484.221 95.0075 485.078 95.6041 485.707 96.3635L483.039 98.7068ZM498.442 98.5441C498.094 98.0884 497.617 97.6979 497.01 97.3724C496.402 97.0253 495.74 96.8517 495.024 96.8517C494.395 96.8517 493.82 96.9819 493.299 97.2422C492.779 97.5026 492.518 97.9365 492.518 98.5441C492.518 99.1516 492.8 99.5855 493.365 99.8459C493.95 100.085 494.797 100.334 495.903 100.594C496.489 100.725 497.075 100.898 497.661 101.115C498.268 101.332 498.81 101.625 499.288 101.994C499.787 102.341 500.188 102.786 500.492 103.328C500.796 103.849 500.948 104.489 500.948 105.248C500.948 106.203 500.763 107.017 500.394 107.689C500.047 108.34 499.57 108.872 498.962 109.284C498.377 109.696 497.682 109.989 496.879 110.163C496.098 110.358 495.285 110.456 494.439 110.456C493.224 110.456 492.041 110.239 490.891 109.805C489.741 109.349 488.787 108.709 488.027 107.885L490.598 105.476C491.032 106.04 491.596 106.507 492.291 106.876C492.985 107.244 493.755 107.429 494.601 107.429C494.883 107.429 495.165 107.396 495.447 107.331C495.751 107.266 496.022 107.169 496.261 107.038C496.521 106.886 496.728 106.691 496.879 106.453C497.031 106.214 497.107 105.921 497.107 105.574C497.107 104.923 496.804 104.456 496.196 104.174C495.61 103.892 494.721 103.61 493.527 103.328C492.941 103.198 492.367 103.035 491.802 102.84C491.26 102.623 490.772 102.352 490.338 102.026C489.904 101.679 489.557 101.256 489.296 100.757C489.036 100.258 488.906 99.6397 488.906 98.9021C488.906 98.0342 489.079 97.2856 489.427 96.6564C489.795 96.0272 490.273 95.5173 490.859 95.1268C491.444 94.7146 492.106 94.4108 492.844 94.2155C493.582 94.0203 494.341 93.9226 495.122 93.9226C496.25 93.9226 497.346 94.1179 498.409 94.5084C499.494 94.899 500.351 95.4956 500.98 96.2984L498.442 98.5441Z" fill="white"/>
<g clip-path="url(#clip0_4_207)">
<path d="M48.711 86.7976L18.7718 48.4659C17.1402 46.3765 17.1402 43.8002 18.7718 41.7076L48.711 3.37917C50.347 1.28653 53.3614 0 56.6288 0H39.0832C35.8157 0 32.7969 1.28653 31.1654 3.37917L1.2261 41.7108C-0.405445 43.8002 -0.405445 46.3765 1.2261 48.4692L31.1654 86.8008C32.7969 88.8902 35.8157 90.18 39.0832 90.18H56.6288C53.3614 90.18 50.347 88.8934 48.711 86.8008V86.7976Z" fill="#44ADA2"/>
<path d="M66.0122 86.7976L36.0729 48.4659C34.4413 46.3765 34.4413 43.8002 36.0729 41.7076L66.0122 3.37917C67.6437 1.28653 70.6625 0 73.9256 0H56.3799C53.1169 0 50.0981 1.28653 48.4621 3.37917L18.5229 41.7108C16.8913 43.8002 16.8913 46.3765 18.5229 48.4692L48.4621 86.8008C50.0937 88.8902 53.1125 90.18 56.3799 90.18H73.9256C70.6581 90.18 67.6437 88.8934 66.0078 86.8008L66.0122 86.7976Z" fill="#FFC324"/>
<path d="M83.645 86.7976L53.7057 48.4659C52.0741 46.3765 52.0741 43.8002 53.7057 41.7076L83.645 3.37917C85.2765 1.28653 88.2953 0 91.5584 0H74.0128C70.7497 0 67.7309 1.28653 66.095 3.37917L36.1557 41.7108C34.5241 43.8002 34.5241 46.3765 36.1557 48.4692L66.095 86.8008C67.7265 88.8902 70.7453 90.18 74.0128 90.18H91.5584C88.291 90.18 85.2765 88.8934 83.6406 86.8008L83.645 86.7976Z" fill="#F95258"/>
</g>
<defs>
<clipPath id="clip0_4_207">
<rect width="92" height="91" fill="white"/>
</clipPath>
</defs>
</svg>
