<svg width="411" height="62" viewBox="0 0 411 62" fill="none" xmlns="http://www.w3.org/2000/svg">
<path d="M0.833984 30.9194C0.833984 48.9557 13.3735 61.5812 31.1522 61.5812C45.4954 61.5812 56.3171 53.5936 59.7526 40.5388H43.6058C41.1151 45.692 36.5631 48.2686 30.9804 48.2686C21.9622 48.2686 15.7784 41.5694 15.7784 30.9194C15.7784 20.2694 21.9622 13.5702 30.9804 13.5702C36.5631 13.5702 41.1151 16.1468 43.6058 21.3H59.7526C56.3171 8.24517 45.4954 0.171772 31.1522 0.171772C13.3735 0.171772 0.833984 12.8831 0.833984 30.9194Z" fill="#3F3F46"/>
<path d="M125.089 30.8335C125.089 12.7113 111.433 0 94.2551 0C77.1636 0 63.2499 12.7113 63.2499 30.8335C63.2499 48.9557 77.1636 61.7529 94.2551 61.7529C111.347 61.7529 125.089 48.9557 125.089 30.8335ZM78.2801 30.8335C78.2801 20.0976 84.464 13.3125 94.2551 13.3125C103.875 13.3125 110.144 20.0976 110.144 30.8335C110.144 41.3976 103.875 48.3545 94.2551 48.3545C84.464 48.3545 78.2801 41.3976 78.2801 30.8335Z" fill="#3F3F46"/>
<path d="M130.253 61.1517H144.94V24.9073L158.51 61.1517H170.363L183.847 24.9932V61.1517H198.534V0.858871H181.27L164.522 42.6001L147.603 0.858871H130.253V61.1517Z" fill="#3F3F46"/>
<path d="M220.776 27.8275V12.7113H228.763C234.604 12.7113 237.094 15.6315 237.094 20.2694C237.094 24.9073 234.604 27.8275 228.763 27.8275H220.776ZM252.039 20.2694C252.039 9.18994 244.652 0.858871 229.88 0.858871H206.089V61.1517H220.776V39.5081H229.88C245.254 39.5081 252.039 30.2323 252.039 20.2694Z" fill="#3F3F46"/>
<path d="M297.819 61.1517H313.364L291.549 0.858871H274.543L252.728 61.1517H268.102L271.709 50.5017H294.211L297.819 61.1517ZM290.432 39.1646H275.574L282.96 17.0916L290.432 39.1646Z" fill="#3F3F46"/>
<path d="M360.8 43.2013C360.8 23.0178 330.997 27.7416 330.997 17.2633C330.997 13.4843 333.66 11.6807 337.181 11.7665C341.132 11.8524 343.88 14.1714 344.138 18.0363H360.027C359.426 6.52743 350.58 0 337.439 0C324.813 0 315.452 6.35566 315.452 17.7787C315.28 39.1646 345.426 33.1525 345.426 44.3178C345.426 47.8392 342.678 49.9864 338.384 49.9864C334.261 49.9864 331.341 47.7533 330.911 43.1154H315.28C315.709 55.3114 325.844 61.7529 338.813 61.7529C352.899 61.7529 360.8 53.336 360.8 43.2013Z" fill="#3F3F46"/>
<path d="M410.635 43.2013C410.635 23.0178 380.832 27.7416 380.832 17.2633C380.832 13.4843 383.494 11.6807 387.016 11.7665C390.967 11.8524 393.715 14.1714 393.973 18.0363H409.862C409.261 6.52743 400.414 0 387.274 0C374.648 0 365.286 6.35566 365.286 17.7787C365.115 39.1646 395.261 33.1525 395.261 44.3178C395.261 47.8392 392.513 49.9864 388.218 49.9864C384.096 49.9864 381.176 47.7533 380.746 43.1154H365.115C365.544 55.3114 375.679 61.7529 388.648 61.7529C402.733 61.7529 410.635 53.336 410.635 43.2013Z" fill="#3F3F46"/>
</svg>
