<svg height="720.032" viewBox="0 0 670.653 720.032" width="670.653" xmlns="http://www.w3.org/2000/svg" xmlns:xlink="http://www.w3.org/1999/xlink"><linearGradient id="a" gradientTransform="matrix(.99695556 .0779719 -.0779719 .99695556 -137.135 -156.076)" gradientUnits="userSpaceOnUse" x1="384.139" x2="599.595" y1="445.948" y2="902.569"><stop offset=".576" stop-color="#3658c1"/><stop offset="1" stop-color="#111"/></linearGradient><path d="m157.302 517.742-112.716-163.56-43.585 14.368 112.716 163.56c139.669 202.67 337.164 201.942 424.252 173.233l43.585-14.368c-87.088 28.709-284.582 29.437-424.251-173.233z" fill="url(#a)"/><path d="m443.808 720.034c-28.596 0-62.017-3.45-98.516-13.576-42.334-11.746-82.436-30.898-119.188-56.925-42.355-29.994-80.445-69.311-113.211-116.855l-112.717-163.56c-.179-.259-.225-.588-.125-.886.101-.299.336-.533.635-.632l43.586-14.368c.423-.136.885.017 1.137.383l112.716 163.56c61.524 89.275 139.341 147.477 231.288 172.987 96.442 26.76 171.21 6.66 191.827-.137.528-.178 1.091.111 1.264.636s-.112 1.09-.637 1.264c-.028.009-.057.019-.085.027l-43.501 14.341c-12.943 4.267-47.084 13.741-94.473 13.741zm-441.227-350.951 111.959 162.46c61.523 89.274 139.34 147.477 231.288 172.987 96.441 26.76 171.209 6.66 191.826-.138l15.148-4.993c-35.011 6.956-93.785 12.149-163.924-7.31-42.335-11.746-82.436-30.898-119.189-56.925-42.355-29.994-80.445-69.311-113.211-116.855l-112.291-162.942-41.606 13.716z" fill="#111"/><path d="m44.585 354.182-43.585 14.368 129.18-296.052 43.585-14.368z" fill="#b0c3ff"/><path d="m1 369.55c-.276 0-.547-.115-.739-.326-.266-.292-.335-.712-.178-1.074l129.18-296.053c.114-.261.334-.46.604-.55l43.585-14.367c.378-.122.788-.016 1.053.275.266.292.335.712.178 1.074l-129.18 296.054c-.114.261-.334.46-.604.55l-43.586 14.368c-.104.033-.209.05-.313.05zm129.918-296.243-128.108 293.593 41.038-13.527 128.107-293.593zm-86.332 280.875h.01z" fill="#111"/><path d="m173.765 58.13 293.833-57.13 112.716 163.559c153.255 222.384 73.49 452.558 23.363 517.404-70.244 35.654-293.121 58.162-446.376-164.222l-112.716-163.559z" fill="#fff"/><path d="m488.054 705.618c-24.214 0-50.133-2.409-76.643-8.022-46.154-9.773-89.938-28.118-130.137-54.526-47.066-30.92-89.055-72.895-124.797-124.76l-112.716-163.56c-.196-.284-.231-.65-.094-.968l129.182-296.052c.131-.302.402-.52.726-.582l293.833-57.13c.392-.073.789.087 1.014.414l112.716 163.56c35.738 51.858 61.141 107.665 75.502 165.872 12.263 49.7 16.51 101.025 12.622 152.55-6.72 89.062-37.384 164.704-64.793 200.161-.091.117-.206.213-.339.28-25.665 13.027-67.416 22.763-116.075 22.763zm-442.33-351.545 112.4 163.102c83.192 120.718 183.882 163.68 253.701 178.464 79.166 16.765 153.014 4.827 191.198-14.465 27.19-35.297 57.566-110.413 64.243-198.91 5.887-78.028-4.563-196.388-87.776-317.137l-112.344-163.021-292.675 56.905z" fill="#111"/><path d="m199.996 96.188-113.425 259.934 98.964 143.604c134.554 195.248 330.237 175.482 391.919 144.182 44.001-56.937 114.037-259.026-20.517-454.274l-98.964-143.604z" fill="#b0c3ff"/><path d="m475.926 664.795c-21.267 0-44.032-2.115-67.312-7.045-40.538-8.583-78.994-24.695-114.301-47.889-41.337-27.155-78.213-64.02-109.603-109.568l-98.963-143.604c-.196-.284-.231-.65-.094-.968l113.427-259.933c.132-.301.403-.519.727-.581l257.978-50.158c.392-.077.789.087 1.014.414l98.963 143.604c31.386 45.542 53.694 94.553 66.307 145.672 10.769 43.647 14.498 88.723 11.084 133.974-5.9 78.215-32.832 144.656-56.905 175.807-.091.117-.206.213-.339.28-22.553 11.444-59.232 19.996-101.98 19.996zm-388.215-308.783 98.647 143.146c130.559 189.447 322.606 178.211 390.443 143.959 48.284-62.716 109.928-263.384-20.688-452.916l-98.592-143.064-256.819 49.934-112.992 258.942z" fill="#111"/><path d="m322.713 274.258c-26.733 22.32-30.356 66.601-8.097 98.9 16.482 23.916 42.525 34.542 65.783 29.408l38.579 55.981c8.933 12.962 25.026 16.251 35.76 7.289s12.194-26.906 3.261-39.868l-38.579-55.981c10.761-23.269 8.476-53.731-8.006-77.647-22.259-32.299-61.976-40.395-88.701-18.081" fill="#3658c1"/><path d="m440.821 471.887c-1.073 0-2.155-.074-3.244-.223-7.559-1.034-14.639-5.608-19.422-12.55l-38.2-55.431c-24.211 5.029-50.115-6.673-66.162-29.958-22.51-32.664-18.796-77.63 8.279-100.235 12.07-10.076 27.355-14.442 43.039-12.303 18.276 2.498 35.453 13.646 47.126 30.584 16.045 23.283 19.289 53.879 8.328 78.114l38.257 55.515c9.245 13.414 7.701 31.897-3.443 41.203-4.142 3.458-9.22 5.282-14.558 5.283zm-60.422-70.321c.324 0 .634.158.823.433l38.579 55.981c4.466 6.479 11.043 10.745 18.047 11.703 5.937.813 11.711-.826 16.249-4.614 10.372-8.661 11.753-25.946 3.078-38.533l-38.579-55.981c-.201-.291-.232-.666-.084-.987 10.955-23.688 7.845-53.779-7.922-76.66-11.354-16.476-28.03-27.314-45.75-29.737-15.115-2.065-29.854 2.144-41.487 11.856l-.641-.768.641.768c-26.303 21.961-29.854 65.729-7.914 97.565 15.729 22.825 41.146 34.204 64.744 28.998.072-.016.145-.023.216-.023z" fill="#111"/></svg>